<?xml version="1.0" standalone="no"?>
<!DOCTYPE svg PUBLIC "-//W3C//DTD SVG 20010904//EN"
 "http://www.w3.org/TR/2001/REC-SVG-20010904/DTD/svg10.dtd">
<svg version="1.0" xmlns="http://www.w3.org/2000/svg"
 width="960.000000pt" height="1280.000000pt" viewBox="0 0 960.000000 1280.000000"
 preserveAspectRatio="xMidYMid meet">

<g transform="translate(0.000000,1280.000000) scale(0.100000,-0.100000)"
fill="#000000" stroke="none">
<path d="M3910 12790 c-14 -5 -113 -15 -220 -24 -107 -9 -244 -21 -305 -27
-60 -6 -121 -12 -135 -13 -14 -1 -29 -4 -35 -7 -5 -3 -50 -6 -100 -8 -49 -2
-128 -6 -175 -11 -47 -4 -186 -17 -310 -29 -124 -11 -241 -23 -260 -25 -19 -3
-80 -8 -135 -11 -55 -3 -111 -8 -125 -10 -14 -3 -49 -7 -79 -10 -30 -2 -56 -6
-58 -8 -9 -9 -21 -172 -22 -292 -1 -71 -6 -220 -11 -330 -5 -110 -12 -285 -15
-390 -8 -299 -15 -459 -19 -475 -3 -8 -8 -100 -11 -205 -4 -104 -9 -194 -12
-199 -5 -7 -14 -154 -13 -206 0 -27 -2 -125 -3 -142 -1 -9 -5 -14 -9 -12 -4 3
-8 -9 -8 -25 0 -21 -5 -31 -15 -31 -8 0 -24 -9 -36 -21 -16 -16 -24 -18 -32
-10 -9 9 -8 14 2 20 7 5 10 14 7 20 -4 6 0 11 8 11 9 0 16 -4 16 -10 0 -5 5
-10 10 -10 21 0 9 20 -15 26 -14 3 -24 11 -23 18 2 6 -2 13 -7 14 -6 2 -19 9
-29 14 -17 9 -17 7 3 -21 23 -32 14 -43 -13 -15 -10 9 -24 13 -36 9 -16 -5
-20 -2 -20 14 0 14 5 19 15 15 8 -4 15 -1 15 5 0 20 -38 12 -43 -10 -5 -17 -9
-19 -26 -9 -12 6 -21 15 -21 21 0 6 4 8 9 4 5 -3 12 -1 16 5 3 5 0 10 -7 10
-26 0 31 43 59 44 21 1 28 6 26 21 -1 10 3 28 8 38 7 13 7 23 -3 34 -10 13
-10 17 0 20 18 7 14 41 -7 52 -10 6 -21 8 -24 5 -2 -3 -7 11 -9 30 -2 19 -1
33 3 30 4 -2 10 0 14 6 3 5 1 10 -4 10 -18 0 -12 29 10 51 17 17 20 31 18 83
-1 34 1 68 5 75 4 6 4 17 -1 24 -5 7 -11 30 -12 51 -3 52 -16 74 -49 82 -15 4
-32 10 -38 15 -9 8 -10 181 -1 778 2 92 -1 115 -13 121 -8 4 -25 12 -37 18
-13 7 -31 12 -42 12 -10 0 -34 7 -54 15 -19 8 -37 11 -41 8 -3 -4 -6 -2 -6 4
0 12 -48 35 -60 28 -8 -5 -25 0 -97 31 -17 8 -38 14 -48 14 -24 0 -114 31
-121 41 -3 5 -21 9 -40 9 -19 0 -34 4 -34 9 0 5 -15 11 -33 14 -17 2 -84 21
-147 41 -63 20 -122 39 -130 41 -8 2 -42 14 -75 26 -33 12 -76 24 -95 26 -19
3 -39 9 -45 14 -5 5 -17 9 -27 9 -10 0 -26 4 -36 9 -27 14 -83 30 -130 37 -23
4 -45 11 -48 15 -3 5 -10 7 -15 4 -5 -4 -9 -1 -9 4 0 6 -13 11 -29 11 -17 0
-33 5 -36 10 -4 6 -11 7 -17 4 -5 -4 -20 -2 -31 4 -21 11 -113 42 -122 42 -3
0 -5 -2806 -5 -6235 l0 -6235 4800 0 4800 0 0 6400 0 6400 -2832 -1 c-1558 0
-2844 -5 -2858 -9z m3060 -1627 c-1 -20 -29 -43 -44 -37 -16 6 -21 25 -9 37 9
9 53 9 53 0z m826 -40 c-11 -11 -19 6 -11 24 8 17 8 17 12 0 3 -10 2 -21 -1
-24z m-3036 -445 c0 17 34 15 78 -5 20 -9 41 -15 45 -14 4 1 15 -5 23 -14 9
-8 24 -15 35 -15 11 0 17 -4 14 -10 -3 -5 0 -7 8 -4 8 3 18 1 21 -5 4 -6 20
-8 35 -5 16 3 38 1 50 -5 14 -8 21 -8 21 -1 0 19 37 10 78 -20 23 -16 49 -30
57 -30 8 0 22 -11 31 -25 15 -22 22 -25 73 -23 53 3 56 4 59 31 4 35 13 34 35
-4 13 -23 21 -28 30 -21 22 18 84 -49 78 -85 -1 -7 5 -13 14 -13 8 0 15 -4 15
-10 0 -5 13 -22 29 -37 16 -16 36 -45 44 -65 9 -22 27 -43 43 -50 34 -16 150
-126 141 -134 -10 -10 13 -45 24 -38 19 11 49 -28 49 -63 0 -30 2 -33 33 -34
17 0 26 -3 20 -6 -7 -2 -13 -10 -13 -17 0 -8 -10 -11 -30 -8 -17 2 -37 -1 -45
-8 -8 -6 -18 -9 -24 -6 -5 3 -11 1 -13 -6 -8 -22 -28 3 -28 34 0 21 -6 31 -19
35 -11 3 -22 12 -25 20 -3 8 -11 11 -17 7 -8 -4 -9 -3 -5 4 4 7 3 19 -2 28 -7
13 -11 12 -26 -11 -20 -30 -15 -53 18 -93 13 -15 24 -31 24 -37 1 -5 10 -11
22 -13 11 -2 20 -8 20 -13 0 -5 9 -9 20 -9 13 0 18 -5 14 -15 -4 -8 -2 -15 4
-15 18 0 67 -54 86 -93 11 -24 23 -37 31 -33 8 3 29 -6 47 -19 18 -13 50 -32
71 -42 23 -11 37 -25 37 -36 0 -11 5 -17 13 -14 6 2 18 -2 25 -9 8 -9 9 -14 2
-14 -6 0 4 -15 23 -32 18 -18 44 -52 57 -75 13 -24 28 -39 35 -36 8 2 12 -3
12 -14 -1 -10 4 -17 11 -15 17 3 15 -8 -4 -22 -13 -10 -11 -17 15 -56 37 -54
40 -71 7 -36 -13 15 -28 26 -33 26 -6 0 -19 11 -29 25 -10 14 -23 25 -28 25
-4 0 -3 -7 4 -15 10 -12 9 -16 -4 -21 -20 -8 -21 -30 -1 -38 8 -3 15 -12 15
-21 0 -8 6 -24 13 -35 10 -17 9 -22 -1 -29 -10 -6 -6 -21 14 -66 19 -40 27
-77 29 -122 1 -42 7 -68 16 -73 11 -7 10 -12 -4 -28 -19 -20 -23 -52 -7 -52 6
0 10 7 10 15 0 15 12 20 22 10 3 -3 1 -26 -4 -50 -6 -30 -6 -50 2 -64 9 -17 8
-21 -5 -21 -18 0 -20 -16 -2 -23 9 -4 8 -8 -3 -17 -11 -8 -12 -13 -3 -16 15
-6 -15 -44 -34 -44 -7 0 -13 -4 -13 -9 0 -13 -40 -1 -61 18 -48 44 -72 61 -89
61 -10 0 -21 4 -24 9 -14 22 -177 35 -268 22 -93 -14 -166 -16 -201 -6 -21 5
-33 3 -47 -10 -16 -15 -22 -15 -35 -5 -14 11 -19 7 -16 -12 0 -5 -4 -8 -10 -8
-5 0 -7 -5 -4 -11 4 -6 -2 -13 -14 -16 -12 -3 -21 -9 -21 -14 0 -5 -12 -6 -27
-3 -39 9 -47 15 -33 24 9 5 9 9 1 14 -6 4 -11 2 -11 -3 0 -6 -7 -11 -15 -11
-9 0 -15 -10 -15 -26 0 -21 -4 -24 -20 -19 -14 5 -20 2 -20 -10 0 -8 -7 -18
-15 -21 -8 -4 -15 -14 -16 -23 0 -9 -5 -1 -10 17 -5 17 -14 32 -20 32 -6 0 -8
-9 -4 -20 4 -11 1 -34 -7 -50 -12 -28 -21 -34 -40 -31 -5 0 -8 -5 -8 -13 0 -8
-7 -16 -15 -20 -11 -4 -14 -13 -9 -30 5 -21 3 -24 -14 -19 -28 7 -39 -17 -17
-34 17 -12 17 -13 2 -13 -22 0 -22 -26 -1 -34 12 -5 15 -14 11 -35 -5 -22 0
-34 23 -56 19 -18 26 -32 21 -39 -12 -15 -5 -110 8 -114 6 -2 11 -19 11 -38 0
-19 5 -34 11 -34 6 0 8 -7 5 -16 -3 -9 2 -28 13 -42 10 -15 24 -44 32 -64 7
-21 19 -38 27 -38 11 0 12 -3 3 -14 -10 -11 -8 -16 8 -21 12 -3 21 -13 21 -20
0 -8 10 -24 23 -37 12 -13 30 -34 39 -47 9 -13 29 -24 45 -26 15 -1 39 -7 53
-13 14 -5 29 -8 33 -5 4 3 5 -7 1 -22 -7 -27 -6 -27 42 -24 49 4 49 4 54 -29
6 -36 54 -72 64 -47 3 8 18 12 38 10 44 -4 47 -6 21 -13 -16 -5 -20 -11 -14
-21 8 -12 15 -12 48 1 53 21 117 22 109 2 -9 -23 23 -29 39 -8 13 17 12 21 -5
36 -32 27 -22 48 30 62 19 6 22 5 10 -3 -12 -8 -6 -10 22 -8 21 1 38 3 38 4 0
15 -15 30 -26 26 -8 -3 -14 0 -14 7 0 6 5 8 10 5 6 -3 10 0 11 7 0 10 2 10 6
1 6 -15 53 -18 53 -3 0 6 -6 10 -12 11 -7 0 -4 4 7 8 11 5 20 12 20 18 0 13
31 43 44 43 6 0 11 6 11 14 0 7 7 19 16 27 9 7 13 21 10 34 -4 17 1 24 29 35
19 8 35 17 35 21 0 9 20 6 36 -4 15 -9 33 30 37 78 1 11 6 25 10 32 4 6 3 15
-3 18 -7 4 -2 19 14 40 26 33 33 55 19 55 -5 0 -9 14 -10 30 0 17 -2 46 -3 66
-1 20 3 40 10 44 9 5 6 12 -9 22 -19 14 -20 16 -6 22 23 8 53 -15 49 -38 -1
-11 0 -25 4 -30 3 -6 5 -21 3 -34 -1 -13 3 -29 9 -37 6 -8 9 -19 5 -25 -3 -5
-2 -10 3 -10 6 0 10 -10 10 -22 -1 -13 5 -54 11 -93 7 -38 12 -81 12 -94 -1
-13 3 -29 8 -35 8 -11 21 -79 27 -147 2 -32 0 -36 -17 -32 -13 4 -19 0 -19
-11 0 -9 8 -16 20 -16 27 0 25 -16 -5 -36 -14 -9 -22 -20 -20 -25 10 -16 -7
-59 -23 -59 -12 0 -11 -4 6 -16 l23 -16 -34 -31 c-29 -26 -34 -38 -31 -64 2
-20 -1 -33 -7 -33 -6 0 -9 -9 -6 -20 6 -25 -1 -30 -53 -34 -47 -4 -61 -13 -40
-27 13 -8 11 -12 -7 -28 -26 -21 -31 -54 -9 -49 24 5 19 -17 -5 -22 -15 -4
-26 -17 -31 -39 -6 -21 -14 -31 -22 -28 -8 3 -19 0 -25 -6 -16 -16 -14 -47 4
-47 8 0 15 -5 15 -11 0 -7 -9 -9 -24 -5 -25 6 -56 -18 -41 -32 4 -4 10 -1 12
6 8 21 36 14 30 -7 -3 -12 1 -22 12 -26 14 -6 14 -8 1 -18 -25 -20 -41 -57
-35 -78 7 -20 35 -27 35 -7 0 6 3 9 6 5 3 -3 -4 -20 -16 -37 -12 -17 -19 -34
-16 -38 4 -3 11 0 16 8 6 8 10 11 10 5 0 -21 -17 -35 -33 -29 -12 4 -17 1 -17
-10 0 -9 5 -16 10 -16 6 0 10 -7 10 -15 0 -8 -5 -15 -12 -15 -6 0 -8 -3 -5 -7
4 -3 1 -13 -7 -22 -8 -9 -16 -27 -19 -41 -2 -14 -2 -19 0 -12 9 26 53 8 46
-19 -4 -16 -13 -19 -41 -17 -35 3 -36 2 -44 -42 -6 -36 -5 -47 8 -57 9 -6 13
-17 9 -23 -5 -9 -1 -10 16 -5 19 5 21 4 9 -4 -8 -6 -26 -11 -40 -11 -18 0 -21
3 -11 9 11 7 10 11 -7 22 -11 7 -18 19 -15 26 3 7 0 13 -5 13 -21 0 -24 -21
-7 -47 16 -23 16 -25 1 -20 -10 4 -16 1 -16 -8 0 -11 8 -13 29 -9 35 7 48 -9
31 -41 -12 -23 -50 -41 -50 -24 0 5 7 9 15 9 8 0 15 6 15 14 0 28 -16 25 -29
-5 -11 -25 -16 -28 -28 -18 -11 10 -16 10 -22 0 -11 -17 -52 16 -44 35 3 8 0
14 -6 14 -6 0 -8 7 -5 15 4 11 -1 15 -17 17 -13 0 -29 2 -36 2 -15 2 -69 56
-54 56 22 0 10 17 -24 33 -38 18 -49 5 -17 -20 15 -13 14 -14 -14 -9 -25 4
-34 1 -44 -19 -12 -22 -18 -24 -74 -12 -11 2 -22 9 -24 15 -2 7 -12 12 -23 12
-10 0 -19 5 -19 10 0 6 -11 10 -24 10 -13 0 -26 5 -28 11 -2 7 -33 11 -80 11
-58 1 -87 -5 -121 -21 -39 -19 -52 -21 -84 -12 -69 19 -192 21 -242 5 -45 -14
-191 -83 -201 -94 -11 -12 -62 -30 -71 -24 -5 3 -12 -2 -15 -10 -3 -9 -12 -16
-20 -16 -8 0 -14 -4 -14 -10 0 -5 -9 -10 -20 -10 -11 0 -20 6 -20 13 0 18 -67
19 -74 1 -3 -8 -12 -14 -21 -14 -8 0 -15 -4 -15 -10 0 -5 -6 -10 -13 -10 -20
0 -47 -36 -35 -48 13 -13 1 -35 -14 -26 -6 4 -6 -1 1 -14 6 -12 11 -25 10 -29
-7 -41 36 -47 51 -7 10 26 11 26 93 19 45 -3 90 -9 100 -11 9 -3 17 0 17 6 0
6 5 8 10 5 6 -3 10 -1 10 6 0 7 10 9 25 7 14 -3 28 -1 31 3 3 5 14 9 25 9 10
0 19 4 19 9 0 21 58 29 220 32 114 2 120 1 120 -15 0 -24 20 -29 41 -10 14 13
22 15 30 7 14 -14 79 -5 97 14 7 7 19 13 25 12 9 0 8 -2 0 -6 -23 -9 -13 -18
22 -21 23 -1 38 3 41 12 4 11 31 14 53 7 2 0 -9 -13 -24 -27 -25 -23 -35 -26
-77 -22 -34 4 -48 1 -48 -7 0 -18 -44 -27 -127 -26 -40 0 -73 -3 -73 -8 0 -4
-11 -6 -25 -3 -16 3 -27 -1 -31 -11 -5 -13 -9 -13 -35 0 -30 15 -63 8 -38 -8
10 -6 4 -9 -17 -9 -28 0 -63 24 -56 39 4 12 -14 5 -55 -19 -24 -14 -42 -29
-42 -35 3 -26 -2 -45 -11 -45 -5 0 -7 13 -3 30 3 20 1 30 -6 30 -20 0 -51 -20
-51 -32 0 -6 -7 -19 -16 -29 -15 -16 -14 -19 6 -36 12 -10 27 -23 34 -28 6 -6
24 -16 39 -23 17 -7 28 -19 26 -30 -4 -40 2 -62 16 -62 8 0 15 6 15 13 0 13
76 18 95 6 6 -4 40 -5 77 -4 37 1 66 0 64 -4 -10 -15 223 6 242 22 10 8 16 7
22 -3 6 -10 12 -11 22 -3 17 13 48 13 48 -1 0 -6 7 -2 16 9 14 19 15 19 21 -3
3 -14 11 -21 19 -18 8 3 14 1 14 -4 0 -15 37 -12 44 3 5 10 7 10 12 0 7 -16
54 -17 54 -2 0 6 8 9 17 7 9 -2 15 -7 14 -12 -4 -14 22 -26 42 -20 18 6 24
-11 7 -21 -18 -11 -11 -32 13 -39 19 -6 20 -8 6 -19 -21 -16 -20 -45 3 -53 11
-3 18 -15 18 -31 0 -19 -4 -24 -16 -19 -11 4 -14 1 -12 -11 4 -22 38 -30 49
-12 6 10 11 11 18 4 14 -14 -16 -40 -44 -40 -11 0 -24 -10 -30 -22 -11 -25
-30 -30 -39 -10 -3 6 -3 2 0 -10 3 -15 1 -23 -8 -24 -29 -3 -64 3 -72 12 -6 5
-16 9 -24 9 -12 0 -12 -3 -2 -15 7 -9 11 -17 9 -19 -11 -9 -79 -13 -84 -5 -8
12 -35 12 -35 -1 0 -5 9 -10 20 -10 26 0 26 -16 0 -23 -13 -3 -18 -1 -13 6 4
7 -1 6 -10 -2 -12 -9 -17 -10 -17 -2 0 8 -10 6 -30 -4 -17 -9 -30 -11 -30 -5
0 5 -9 10 -20 10 -11 0 -20 -7 -20 -15 0 -18 -17 -20 -23 -2 -2 7 -22 12 -53
12 -36 0 -48 4 -46 13 4 21 -22 8 -33 -16 -6 -13 -19 -22 -32 -22 -12 0 -25
-4 -28 -10 -3 -5 0 -10 7 -10 23 0 -15 -20 -39 -20 -13 0 -23 -4 -23 -10 0
-15 -30 -12 -30 3 -1 6 -6 2 -13 -11 -14 -24 -30 -21 -20 4 3 10 -2 14 -18 14
-19 0 -21 -2 -9 -10 23 -14 8 -20 -68 -25 -63 -5 -74 -3 -92 15 -11 11 -34 20
-52 21 -18 0 -28 3 -21 5 7 3 9 12 6 19 -4 12 -7 12 -20 0 -8 -8 -11 -20 -7
-27 5 -8 2 -9 -11 -5 -11 5 -22 1 -31 -10 -12 -17 -13 -17 -19 0 -4 9 -14 17
-22 17 -8 0 -11 -4 -8 -10 3 -6 -5 -10 -18 -10 -16 0 -26 7 -30 20 -4 17 -11
19 -39 14 -18 -4 -41 -11 -50 -15 -23 -12 -51 -11 -43 1 8 13 -40 31 -61 23
-13 -5 -15 -2 -9 15 6 19 2 22 -27 23 -18 1 -36 1 -40 0 -5 0 -8 6 -8 14 0 8
-7 15 -15 15 -8 0 -20 9 -27 20 -7 11 -21 20 -32 20 -13 0 -16 3 -8 13 5 6 12
21 16 32 5 16 1 21 -15 22 -11 1 -23 -5 -26 -13 -3 -8 -13 -18 -22 -23 -13 -8
-16 -2 -18 31 -2 36 -1 39 13 27 17 -14 28 -5 77 65 11 16 27 26 42 26 20 0
25 5 25 25 0 14 5 25 11 25 5 0 7 5 4 10 -9 15 -45 12 -51 -5 -4 -8 -15 -15
-25 -15 -21 0 -26 16 -6 23 9 3 9 7 0 17 -6 7 -9 20 -6 29 3 9 -4 5 -16 -9
l-21 -25 7 33 c6 33 5 34 -16 20 -18 -11 -23 -11 -30 1 -5 8 -16 11 -30 6 -18
-5 -20 -9 -10 -21 9 -11 8 -19 -6 -34 -10 -11 -24 -20 -32 -20 -7 0 -13 -10
-13 -22 0 -17 3 -19 12 -10 17 17 25 15 31 -9 3 -12 0 -22 -9 -26 -8 -3 -14
-13 -14 -22 0 -9 -5 -22 -12 -29 -9 -9 -7 -12 11 -12 12 0 19 -4 16 -10 -4 -6
-25 -9 -48 -8 -28 2 -41 -1 -40 -9 1 -6 -5 -14 -13 -17 -13 -5 -15 -1 -10 18
6 23 4 24 -26 21 -21 -3 -28 -1 -19 4 9 6 10 10 2 16 -7 4 -18 2 -25 -4 -10
-8 -20 -6 -39 9 -22 17 -29 18 -51 8 -22 -10 -28 -9 -40 7 -8 11 -19 16 -30
12 -11 -5 -25 2 -40 18 -13 14 -31 25 -40 25 -10 0 -33 16 -52 35 -18 19 -40
35 -49 35 -19 0 -20 24 -1 43 9 8 11 19 6 27 -5 8 -6 18 -4 22 3 4 1 8 -5 8
-5 0 -17 7 -26 16 -9 9 -23 13 -32 9 -11 -4 -14 -9 -7 -13 6 -4 13 -21 16 -38
4 -28 3 -30 -19 -20 -23 11 -40 36 -24 36 5 0 9 16 8 35 -1 30 -5 35 -24 35
-13 0 -23 6 -23 14 0 21 21 31 31 15 6 -11 9 -10 14 4 8 20 -18 49 -38 41 -8
-3 -23 6 -35 20 -23 30 -47 34 -56 9 -6 -15 -9 -15 -27 3 -23 24 -17 80 10 87
9 3 1 5 -16 6 -18 0 -33 6 -33 12 0 6 9 8 20 4 11 -4 20 -2 20 4 0 6 -9 11
-20 11 -24 0 -38 25 -32 56 3 19 9 23 23 19 14 -5 19 -1 19 13 0 33 -30 35
-57 6 -18 -20 -27 -24 -33 -14 -4 7 -16 9 -29 5 -23 -7 -24 -5 -15 19 4 9 23
19 45 22 32 5 39 11 39 29 0 13 -11 30 -25 39 -30 20 -35 20 -35 1 0 -8 -4
-15 -10 -15 -5 0 -10 7 -10 16 0 9 -5 12 -12 8 -8 -5 -9 0 -5 15 4 17 -3 30
-29 54 l-35 31 22 17 c21 16 21 17 3 27 -16 10 -17 13 -4 21 8 6 16 22 17 37
l2 26 -20 -23 c-17 -20 -24 -19 -20 5 1 5 -4 16 -12 25 -19 21 -29 51 -17 51
5 0 12 -9 15 -20 5 -16 10 -18 26 -9 25 13 62 2 55 -17 -8 -20 9 -61 18 -45 4
6 2 18 -4 26 -10 12 -7 16 14 25 31 11 25 40 -8 40 -16 0 -18 2 -7 9 7 5 11
13 7 19 -3 6 8 20 24 32 17 12 29 25 25 28 -3 3 -11 0 -17 -6 -20 -20 -28 -13
-21 18 3 19 1 30 -6 30 -6 0 -11 7 -11 15 0 18 27 20 32 3 3 -7 7 -6 11 5 5
12 1 17 -13 17 -13 0 -20 7 -20 20 0 14 7 20 21 20 31 0 20 35 -11 36 -73 2
-75 3 -55 18 16 12 17 16 6 30 -12 14 -11 16 8 16 12 0 21 6 21 15 0 18 -12
19 -28 3 -9 -10 -16 -8 -30 6 -16 17 -16 18 6 11 25 -7 28 2 7 29 -15 20 -15
20 -30 0 -14 -19 -14 -18 -15 4 0 12 5 22 10 22 6 0 10 9 10 19 0 15 -7 19
-35 18 -28 -1 -36 -6 -46 -30 -8 -18 -15 -24 -19 -17 -4 7 -23 12 -42 12 -28
0 -36 5 -44 27 -6 17 -6 34 1 49 12 26 18 27 35 7 10 -13 9 -15 -9 -15 -27 0
-27 -17 2 -41 33 -28 54 -24 62 12 4 17 4 33 1 36 -3 4 -6 -1 -6 -10 0 -21
-16 -22 -24 -2 -3 8 0 15 7 15 7 0 3 6 -8 12 -11 6 -30 22 -43 37 -19 21 -25
23 -32 11 -6 -8 -10 -18 -10 -22 0 -5 -11 -8 -25 -8 -14 0 -25 -4 -25 -9 0 -5
11 -12 25 -15 14 -4 25 -14 25 -22 0 -12 -4 -14 -12 -7 -7 5 -25 10 -40 11
-20 1 -26 -2 -22 -13 4 -8 12 -15 20 -15 8 0 14 -9 14 -20 0 -11 -6 -20 -12
-20 -10 0 -10 -2 -1 -8 15 -9 9 -115 -7 -120 -17 -6 -11 -22 8 -23 13 0 12 -3
-5 -11 -24 -11 -32 -33 -11 -26 18 6 41 -19 35 -37 -3 -7 1 -19 9 -26 8 -7 12
-19 9 -26 -3 -8 2 -21 10 -29 11 -11 12 -20 5 -34 -14 -26 -12 -60 3 -62 6 0
17 -2 22 -2 22 -3 51 -32 50 -51 0 -11 3 -28 8 -38 11 -24 -29 -91 -50 -82
-12 4 -14 0 -10 -15 6 -24 1 -25 -37 -5 -16 9 -31 13 -34 10 -11 -10 -31 -79
-26 -87 9 -14 -15 -46 -40 -50 -26 -5 -36 11 -36 60 0 24 -10 28 -28 10 -15
-15 -26 -4 -18 17 4 11 12 14 26 10 14 -4 20 -2 20 8 0 35 -66 28 -73 -7 -3
-16 -5 -15 -6 7 0 16 -5 25 -11 22 -7 -5 -120 99 -120 111 0 2 -11 15 -25 30
-13 14 -30 39 -37 55 -7 16 -16 29 -20 29 -5 0 -8 4 -8 9 0 5 -22 55 -49 112
-27 57 -59 134 -72 172 -22 64 -22 68 -6 85 11 10 20 13 25 7 17 -24 32 -14
27 18 -2 17 1 47 6 65 8 24 8 37 -1 47 -9 11 -9 15 -1 15 6 0 11 19 11 46 0
37 4 47 20 51 25 7 26 23 1 30 -11 3 -22 12 -25 20 -4 11 -1 13 14 8 20 -6 28
9 10 20 -5 3 -10 11 -10 17 0 14 71 0 85 -16 11 -14 58 -41 88 -50 28 -9 20
-43 -17 -65 -31 -19 -34 -26 -34 -66 1 -25 5 -45 10 -45 5 0 6 -11 2 -24 -3
-13 -1 -27 5 -30 6 -4 11 -22 11 -40 0 -17 5 -37 11 -43 8 -8 8 -17 -1 -32
-13 -25 0 -33 55 -34 18 -1 32 -4 29 -8 -11 -19 19 -18 46 1 23 16 34 19 44
11 22 -18 27 0 7 28 -19 27 -40 98 -48 167 -3 29 0 44 11 53 9 8 16 21 16 31
0 10 7 23 15 30 13 10 19 10 35 -5 11 -10 20 -24 20 -32 0 -7 7 -13 16 -13 12
0 15 -7 12 -25 -7 -32 7 -41 24 -17 7 11 30 22 51 26 27 5 37 12 37 26 0 14
-5 18 -17 13 -10 -4 -22 -13 -27 -21 -7 -12 -10 -12 -17 -1 -5 8 -9 24 -9 37
0 14 -4 21 -11 16 -7 -4 -7 1 1 16 6 12 9 29 5 37 -3 9 -1 20 6 23 8 6 8 13
-1 30 -6 12 -9 28 -6 36 3 8 -1 17 -9 20 -11 4 -12 11 -5 24 5 9 6 20 2 24 -3
4 -1 10 5 14 10 6 19 62 28 182 1 14 5 33 9 43 5 9 6 26 3 37 -3 11 -1 22 3
25 5 3 5 19 0 36 -8 26 -7 30 6 25 8 -3 12 -2 9 3 -3 5 -1 12 5 16 5 3 10 17
10 31 0 14 4 22 10 19 6 -3 10 -1 10 4 0 6 -4 11 -9 11 -12 0 -20 48 -14 88 4
24 8 30 15 20 5 -8 6 -3 2 15 -4 19 -1 33 10 46 10 11 15 33 14 60 -1 23 4 47
10 53 7 7 12 22 12 35 0 13 7 26 15 29 8 4 15 14 15 23 0 10 14 23 35 31 27
11 32 16 24 27 -9 10 -8 13 5 13 9 0 16 6 16 14 0 8 3 21 6 30 3 9 1 16 -5 16
-6 0 -11 -6 -11 -14 0 -8 -4 -18 -10 -21 -5 -3 -10 3 -10 14 0 25 51 52 74 39
12 -7 16 -4 16 12 0 11 -7 20 -15 20 -23 0 -23 69 -1 105 7 11 18 49 24 85 7
36 17 67 22 68 7 3 7 9 -1 18 -9 11 -8 14 2 14 8 0 19 11 26 25 9 20 8 25 -3
25 -8 0 -23 9 -35 21 -16 16 -18 24 -9 33 10 8 14 8 17 -1 3 -7 9 -13 14 -13
12 0 12 25 0 48 -5 9 -14 28 -19 42 -8 19 -11 20 -11 7 -1 -10 -5 -16 -11 -12
-19 12 1 35 26 29 19 -5 23 -3 18 10 -3 9 -1 16 5 16 6 0 11 8 11 19 0 10 11
27 25 37 25 19 34 44 14 44 -5 0 -7 5 -4 10 4 6 10 8 15 5 5 -3 20 6 35 19 16
15 22 27 15 31 -17 11 -12 45 8 45 17 0 65 52 68 75 1 7 -7 10 -22 7 -16 -3
-24 -12 -27 -31 l-4 -26 -2 27 c-1 33 48 75 67 56 9 -9 12 -5 12 15 0 15 -5
27 -10 27 -6 0 -5 6 2 14 8 9 17 11 23 5 11 -11 26 -12 23 -1 -1 4 4 18 11 31
8 15 9 27 3 33 -6 6 1 21 19 40 15 17 26 35 24 39 -5 8 43 59 56 59 5 0 9 -4
9 -10 0 -5 3 -10 8 -10 4 0 6 15 5 32 -2 45 -2 45 -13 28 -5 -8 -12 -11 -15
-8 -15 15 9 28 48 28 35 0 46 5 67 31 52 63 81 89 103 90 l22 2 -22 4 c-13 2
-23 11 -23 18 0 20 37 37 60 30 11 -4 24 -4 29 0 15 9 1 37 -15 31 -9 -4 -14
2 -14 16 0 16 3 18 14 9 8 -7 17 -8 20 -3 3 5 17 12 30 14 17 4 23 1 19 -9 -3
-7 0 -13 6 -13 6 0 11 4 11 8 0 11 66 42 90 42 11 0 20 7 20 15 0 8 -7 15 -15
15 -8 0 -15 4 -15 9 0 16 89 25 116 12 26 -11 32 -3 12 17 -10 10 -8 16 5 29
14 14 22 15 52 6 28 -9 42 -8 62 2 22 12 29 12 47 -1 11 -8 25 -14 31 -14 5 0
2 5 -8 11 -14 8 -16 14 -6 25 19 23 48 17 55 -11 6 -24 34 -36 34 -14 0 6 7 8
15 5 8 -3 22 -9 32 -13 11 -4 14 -3 9 5 -4 7 -3 12 2 12 6 0 13 -7 16 -16 9
-23 28 -6 20 19 -3 12 -15 32 -26 43 -16 18 -16 22 -5 27 17 6 62 -38 72 -70
5 -18 14 -23 39 -23 18 0 41 -7 52 -15 26 -20 64 -19 81 3 13 16 14 15 8 -5
-4 -14 -2 -23 4 -23 6 0 11 6 11 14 0 7 7 19 15 26 13 10 15 9 15 -10 0 -19 4
-21 25 -16 18 5 25 2 25 -9 0 -9 9 -15 21 -15 18 0 21 5 17 30 -3 20 0 30 8
30 8 0 11 -6 8 -15 -8 -19 10 -20 25 -1 9 11 9 15 -1 19 -7 2 -10 8 -6 12 4 4
14 2 23 -5 10 -8 15 -9 15 -1 0 6 5 11 10 11 20 0 9 -33 -17 -56 -16 -14 -22
-24 -14 -24 7 0 21 9 30 19 11 13 28 19 51 18 l35 -2 -2 45 c-2 44 -2 44 8 13
13 -44 39 -44 39 -1 l0 32 23 -23 c16 -17 18 -25 9 -28 -17 -6 48 -41 66 -35
7 3 10 12 7 23 -9 26 8 24 20 -3 14 -30 32 -33 31 -6 -1 19 4 23 27 21 15 -1
27 2 27 8 0 5 5 9 11 9 6 0 9 -7 5 -15 -3 -8 -1 -15 5 -15 6 0 7 -5 3 -11 -4
-8 -9 -8 -17 0 -13 13 -27 14 -27 2 0 -5 10 -11 21 -14 14 -4 20 -11 16 -20
-7 -19 28 -51 48 -44 8 4 14 1 12 -6 -1 -7 7 -11 21 -10 13 2 25 -4 28 -12 4
-8 17 -15 30 -15 14 0 24 -6 24 -15 0 -19 65 -31 85 -15 17 14 35 5 36 -18 0
-14 2 -13 9 3 7 17 9 17 9 3 1 -10 5 -18 10 -18 5 0 11 -9 14 -21 8 -31 31
-18 35 19 3 27 0 32 -17 32 -14 0 -21 6 -21 18 0 28 -11 34 -32 15 -21 -19
-37 -9 -22 15 5 9 8 27 6 40 -3 20 -8 22 -33 17 -27 -6 -43 9 -18 17 6 2 -3
19 -20 37 -17 18 -31 39 -31 47 0 7 -10 18 -21 25 -16 8 -18 13 -9 19 26 16
-2 32 -48 27 -41 -4 -75 -27 -52 -35 17 -6 11 -30 -9 -37 -21 -6 -59 24 -80
62 -6 12 -17 20 -24 17 -8 -3 -23 17 -40 53 -16 36 -38 65 -55 75 -28 17 -28
17 -47 -18 -17 -33 -17 -35 0 -54 17 -19 17 -20 0 -26 -11 -4 -21 -2 -26 7
-20 35 -38 53 -45 46 -5 -4 -2 -12 6 -17 12 -8 10 -10 -7 -10 -25 0 -28 11
-12 42 9 16 7 24 -5 36 -15 15 -16 15 -16 -3 0 -15 -2 -16 -12 -6 -7 6 -13 15
-13 19 -1 16 -38 62 -50 62 -7 0 -15 4 -17 9 -1 5 -21 13 -43 16 l-40 8 24
-26 c25 -27 23 -57 -4 -57 -8 0 -20 -12 -26 -27 l-10 -28 -30 33 c-30 33 -83
45 -91 20 -6 -16 -114 -16 -158 1 -19 7 -48 19 -65 27 -29 12 -93 30 -67 18 6
-3 12 -12 12 -20 0 -8 7 -14 15 -14 9 0 15 -9 15 -25 0 -31 -12 -31 -74 0 -27
14 -51 25 -53 25 -1 0 -2 -10 0 -22 1 -17 -4 -24 -21 -26 -13 -2 -30 2 -38 9
-13 10 -13 8 -4 -16 6 -15 8 -30 5 -33 -3 -3 -5 0 -5 6 0 6 -6 9 -14 6 -8 -3
-16 2 -19 13 -3 14 -7 11 -17 -14 -12 -34 -50 -47 -50 -18 0 8 7 15 15 15 18
0 18 1 5 34 -8 22 -16 26 -47 26 -21 0 -50 6 -65 14 -23 12 -29 12 -39 0 -6
-8 -20 -14 -30 -14 -17 0 -37 -36 -25 -47 3 -4 6 -1 6 5 0 7 8 12 17 12 13 0
14 -3 5 -12 -18 -18 -15 -28 8 -28 20 0 40 -27 40 -54 0 -10 -6 -13 -17 -9
-23 8 -63 50 -63 66 0 8 -3 8 -12 -1 -17 -17 -63 -15 -101 5 -18 9 -57 19 -87
22 -40 4 -55 10 -55 21 0 11 13 16 45 18 47 2 100 -13 100 -30 0 -5 5 -6 11
-3 7 5 5 15 -5 31 -18 26 -21 59 -6 49 5 -3 18 -1 27 4 10 6 12 11 6 11 -7 0
-13 7 -13 15 0 16 36 21 42 6 2 -5 18 -12 36 -16 25 -5 32 -3 32 8 0 8 -7 17
-15 21 -17 6 -19 15 -6 35 8 12 14 13 36 3 14 -7 23 -17 20 -22 -9 -14 21 -13
45 2 15 9 24 9 43 -1 18 -9 37 -10 77 -3 30 6 60 8 67 5 7 -3 13 0 13 7 0 6 5
8 10 5 6 -4 17 -1 26 5 8 8 30 11 53 7 21 -2 44 -1 52 4 7 4 19 3 26 -2 6 -6
20 -8 30 -5 10 3 65 8 122 10 77 4 111 10 135 25 28 17 32 17 44 3 7 -10 12
-11 12 -4z m-3090 -58 c0 -5 -2 -10 -4 -10 -3 0 -8 5 -11 10 -3 6 -1 10 4 10
6 0 11 -4 11 -10z m10 -30 c0 -5 -7 -10 -15 -10 -8 0 -15 5 -15 10 0 6 7 10
15 10 8 0 15 -4 15 -10z m-7 -27 c-10 -4 -10 -10 2 -26 20 -29 20 -68 -1 -60
-8 3 -13 12 -9 21 3 8 0 21 -6 28 -13 16 -5 44 13 43 10 0 10 -2 1 -6z m-38
-73 c-3 -4 0 -11 5 -13 6 -3 5 -4 -2 -3 -7 1 -15 11 -16 21 -3 11 0 15 7 10 6
-3 9 -10 6 -15z m2362 4 c-3 -3 -12 -4 -19 -1 -8 3 -5 6 6 6 11 1 17 -2 13 -5z
m-392 -54 c3 -5 22 -10 41 -10 35 0 41 -7 24 -28 -7 -8 -7 -9 1 -3 15 12 59 1
59 -16 0 -12 -9 -14 -40 -10 -22 3 -43 1 -46 -4 -3 -5 -18 -9 -33 -9 -24 0
-30 5 -34 30 -4 19 -13 30 -24 30 -15 0 -15 2 3 15 22 17 40 19 49 5z m186
-56 c11 -14 10 -15 -11 -12 -13 1 -25 9 -28 16 -5 17 23 15 39 -4z m-177 -94
c6 0 1 -6 -10 -14 -26 -18 -121 -18 -128 1 -3 7 -12 13 -21 13 -8 0 -15 5 -15
10 0 13 13 13 26 0 7 -7 16 -4 29 10 14 16 15 22 5 35 -7 8 -10 21 -7 30 5 11
19 2 58 -35 29 -28 57 -50 63 -50z m876 65 c10 -12 10 -15 -4 -15 -9 0 -16 7
-16 15 0 8 2 15 4 15 2 0 9 -7 16 -15z m-2735 -101 c35 -12 54 -22 51 -30 -3
-7 4 -14 16 -16 27 -4 33 -21 15 -39 -7 -8 -12 -20 -9 -27 5 -17 -15 -15 -21
2 -3 8 -1 17 6 20 8 3 7 9 -5 19 -10 8 -18 18 -18 23 0 17 -40 34 -68 29 -15
-3 -21 -2 -14 1 18 9 15 22 -8 29 -12 4 -20 15 -19 28 l0 22 9 -22 c6 -15 27
-27 65 -39z m1675 32 c0 -2 -8 -2 -19 1 -10 3 -22 0 -25 -6 -4 -6 -17 -11 -29
-10 l-22 0 21 9 c12 5 25 13 29 19 4 8 12 8 26 1 10 -6 19 -12 19 -14z m-1800
-26 c0 -11 -7 -20 -15 -20 -18 0 -19 12 -3 28 16 16 18 15 18 -8z m219 -9 c-3
-6 -10 -7 -18 -2 -7 5 -10 14 -6 21 9 14 29 -2 24 -19z m1531 -1 c0 -5 7 -10
15 -10 8 0 15 6 15 13 0 8 3 8 9 -2 5 -8 26 -15 48 -15 28 -1 39 -6 41 -20 3
-15 0 -17 -14 -11 -11 4 -41 9 -69 12 -67 6 -76 10 -69 28 7 17 24 21 24 5z
m5690 -4 c0 -18 -35 -27 -49 -13 -18 18 -12 27 19 27 19 0 30 -5 30 -14z
m-5780 -17 c0 -6 -4 -7 -10 -4 -5 3 -10 11 -10 16 0 6 5 7 10 4 6 -3 10 -11
10 -16z m1867 15 c-3 -3 -12 -4 -19 -1 -8 3 -5 6 6 6 11 1 17 -2 13 -5z
m-3400 -36 c-3 -8 -6 -5 -6 6 -1 11 2 17 5 13 3 -3 4 -12 1 -19z m3593 5 c0
-10 -20 -40 -20 -31 0 3 -3 13 -6 22 -4 11 -1 16 10 16 9 0 16 -3 16 -7z
m-3742 -57 c-7 -8 -15 -12 -17 -11 -5 6 10 25 20 25 5 0 4 -6 -3 -14z m1556
-42 c21 -20 11 -37 -13 -25 -10 6 -23 17 -31 25 -11 14 -9 16 8 16 11 0 28 -7
36 -16z m-1494 2 c0 -3 -4 -8 -10 -11 -5 -3 -10 -1 -10 4 0 6 5 11 10 11 6 0
10 -2 10 -4z m118 -26 c-1 -16 -4 -30 -8 -30 -10 0 -21 41 -14 52 11 18 23 6
22 -22z m52 20 c0 -5 -7 -10 -15 -10 -8 0 -15 5 -15 10 0 6 7 10 15 10 8 0 15
-4 15 -10z m-120 -31 c0 -5 -4 -9 -10 -9 -5 0 -10 7 -10 16 0 8 5 12 10 9 6
-3 10 -10 10 -16z m-75 1 c3 -5 2 -10 -4 -10 -5 0 -13 5 -16 10 -3 6 -2 10 4
10 5 0 13 -4 16 -10z m2165 0 c8 -5 11 -10 5 -10 -5 0 -17 5 -25 10 -8 5 -10
10 -5 10 6 0 17 -5 25 -10z m-2060 -101 c0 -5 -4 -9 -10 -9 -5 0 -10 7 -10 16
0 8 5 12 10 9 6 -3 10 -10 10 -16z m1308 10 c-2 -6 -8 -10 -13 -10 -5 0 -11 4
-13 10 -2 6 4 11 13 11 9 0 15 -5 13 -11z m672 7 c0 -3 -4 -8 -10 -11 -5 -3
-10 -1 -10 4 0 6 5 11 10 11 6 0 10 -2 10 -4z m-2095 -15 c5 -1 4 -6 -2 -12
-6 -6 -21 -8 -32 -4 -25 8 -19 25 7 20 9 -2 21 -4 27 -4z m1465 -17 c0 -8 -4
-12 -10 -9 -5 3 -10 10 -10 16 0 5 5 9 10 9 6 0 10 -7 10 -16z m-1480 -18 c0
-11 -19 -15 -25 -6 -3 5 1 10 9 10 9 0 16 -2 16 -4z m60 -16 c0 -5 -7 -10 -15
-10 -8 0 -15 5 -15 10 0 6 7 10 15 10 8 0 15 -4 15 -10z m1323 -44 c3 -8 3
-16 0 -19 -9 -10 -33 5 -33 19 0 18 26 18 33 0z m2978 -19 c-13 -13 -26 -3
-16 12 3 6 11 8 17 5 6 -4 6 -10 -1 -17z m-4164 -17 c-1 -23 0 -22 -21 -14
-12 5 -13 9 -4 24 14 23 27 17 25 -10z m1003 10 c0 -5 -4 -10 -10 -10 -5 0
-10 5 -10 10 0 6 5 10 10 10 6 0 10 -4 10 -10z m25 -30 c3 -5 2 -10 -4 -10 -5
0 -13 5 -16 10 -3 6 -2 10 4 10 5 0 13 -4 16 -10z m641 -116 c-9 -9 -20 -13
-24 -9 -4 3 2 13 12 21 11 7 22 12 24 9 2 -2 -3 -12 -12 -21z m-41 -32 c5 -12
13 -22 17 -22 5 0 8 -4 8 -9 0 -5 -9 -7 -21 -4 -12 3 -18 11 -15 19 3 8 -1 14
-9 14 -8 0 -15 7 -15 16 0 22 23 12 35 -14z m-35 -19 c-1 -26 -14 -51 -25 -47
-7 3 -16 1 -20 -5 -3 -6 -13 -11 -21 -11 -12 0 -12 4 -4 20 6 11 17 20 24 20
8 0 16 7 20 15 5 15 26 21 26 8z m-70 -114 c0 -14 -17 -10 -23 5 -4 10 -1 13
9 9 7 -3 14 -9 14 -14z m-1570 -23 c0 -3 -4 -8 -10 -11 -5 -3 -10 -1 -10 4 0
6 5 11 10 11 6 0 10 -2 10 -4z m1487 -12 c-3 -3 -12 -4 -19 -1 -8 3 -5 6 6 6
11 1 17 -2 13 -5z m-1582 -14 c3 -5 1 -10 -4 -10 -6 0 -11 5 -11 10 0 6 2 10
4 10 3 0 8 -4 11 -10z m1522 -372 c-3 -8 -6 -5 -6 6 -1 11 2 17 5 13 3 -3 4
-12 1 -19z m3113 -518 c0 -30 -13 -40 -25 -20 -8 13 4 50 16 50 5 0 9 -13 9
-30z m-3230 -20 c0 -5 -4 -10 -10 -10 -5 0 -10 5 -10 10 0 6 5 10 10 10 6 0
10 -4 10 -10z m3270 -181 c0 -5 -4 -9 -10 -9 -5 0 -10 7 -10 16 0 8 5 12 10 9
6 -3 10 -10 10 -16z m-26 -21 c-3 -4 -11 -5 -19 -2 -11 5 -12 9 -2 19 12 13
31 -1 21 -17z m29 -35 c-7 -2 -19 -2 -25 0 -7 3 -2 5 12 5 14 0 19 -2 13 -5z
m-478 -83 c-4 -6 11 -10 37 -10 82 -1 137 -22 138 -52 0 -11 -44 -10 -56 2 -5
5 -64 11 -132 12 l-122 3 38 19 c20 11 48 21 61 22 13 2 26 5 29 8 9 10 14 7
7 -4z m693 -313 c12 -11 22 -28 22 -37 0 -23 -32 -58 -47 -53 -7 3 -13 0 -13
-6 0 -28 -20 -7 -25 27 -3 20 -11 45 -16 55 -24 45 33 55 79 14z m-4062 -42
c51 -25 98 -45 103 -45 5 0 8 -11 5 -25 -3 -19 1 -28 20 -36 13 -6 28 -21 34
-34 9 -20 8 -22 -9 -18 -15 4 -18 2 -13 -13 4 -11 13 -24 21 -31 11 -9 11 -13
2 -19 -7 -4 -15 -2 -17 4 -2 8 -11 7 -28 -5 -23 -15 -26 -14 -49 11 -14 15
-25 31 -25 35 0 5 -10 11 -23 15 -13 3 -42 23 -66 45 -49 45 -132 83 -139 63
-2 -7 -14 -12 -27 -12 -15 0 -22 -6 -21 -16 0 -9 -5 -19 -12 -21 -19 -7 -6 64
17 97 45 63 102 65 227 5z m-156 -324 c0 -12 -23 -31 -37 -31 -17 0 -17 37 0
43 14 5 37 -2 37 -12z m4120 -117 c0 -8 -4 -12 -10 -9 -5 3 -10 10 -10 16 0 5
5 9 10 9 6 0 10 -7 10 -16z m20 -117 c-6 -4 -8 -5 -6 -1 2 3 0 20 -5 37 -5 17
-6 41 -2 52 5 15 9 7 14 -30 5 -29 4 -53 -1 -58z m-4120 75 c0 -14 -35 -42
-52 -42 -25 0 -23 24 5 43 20 13 47 13 47 -1z m4130 -132 c0 -13 -1 -13 -10 0
-5 8 -10 22 -10 30 0 13 1 13 10 0 5 -8 10 -22 10 -30z m-4150 4 c0 -8 -4 -12
-10 -9 -5 3 -10 13 -10 21 0 8 5 12 10 9 6 -3 10 -13 10 -21z m3920 -4 c0 -5
-4 -10 -9 -10 -6 0 -13 5 -16 10 -3 6 1 10 9 10 9 0 16 -4 16 -10z m230 -35
c0 -8 -4 -15 -10 -15 -5 0 -10 7 -10 15 0 8 5 15 10 15 6 0 10 -7 10 -15z
m-3560 -5 c0 -5 -4 -10 -10 -10 -5 0 -10 5 -10 10 0 6 5 10 10 10 6 0 10 -4
10 -10z m35 -30 c-3 -5 -10 -10 -16 -10 -5 0 -9 5 -9 10 0 6 7 10 16 10 8 0
12 -4 9 -10z m135 -11 c0 -5 -4 -9 -10 -9 -5 0 -10 7 -10 16 0 8 5 12 10 9 6
-3 10 -10 10 -16z m3375 -52 c-3 -54 -8 -74 -26 -93 -12 -13 -27 -34 -33 -46
-13 -26 -73 -41 -63 -15 3 8 9 36 13 63 4 27 14 64 22 84 9 19 16 38 16 42 2
12 16 21 16 10 0 -19 17 -14 22 6 3 10 12 19 21 19 13 0 15 -12 12 -70z
m-3455 48 c0 -8 -9 -15 -20 -15 -11 0 -20 7 -20 15 0 8 9 15 20 15 11 0 20 -7
20 -15z m-77 -36 c-6 -6 -17 -8 -24 -3 -9 5 -8 9 7 14 23 9 31 3 17 -11z m57
-149 c0 -5 -2 -10 -4 -10 -3 0 -8 5 -11 10 -3 6 -1 10 4 10 6 0 11 -4 11 -10z
m147 4 c-3 -3 -12 -4 -19 -1 -8 3 -5 6 6 6 11 1 17 -2 13 -5z m3005 -56 c-7
-7 -12 -8 -12 -2 0 14 12 26 19 19 2 -3 -1 -11 -7 -17z m-3072 -42 c-7 -14
-18 -22 -24 -19 -7 4 -6 8 2 11 7 2 12 15 12 30 0 20 3 23 12 14 9 -9 9 -17
-2 -36z m85 -2 c32 -21 32 -34 1 -34 -13 0 -26 -5 -28 -11 -2 -6 -14 -8 -31
-3 -22 5 -26 9 -16 18 8 8 13 8 16 -1 9 -24 23 -13 23 17 0 35 2 36 35 14z
m3249 -12 c8 -24 -7 -105 -20 -109 -23 -8 -33 94 -12 115 17 17 26 15 32 -6z
m-255 -56 c-9 -8 -10 -7 -5 7 3 10 7 24 7 30 1 7 3 4 6 -7 3 -10 -1 -23 -8
-30z m196 -66 c3 -5 -1 -10 -9 -10 -9 0 -16 5 -16 10 0 6 4 10 9 10 6 0 13 -4
16 -10z m-275 -141 c0 -6 -4 -7 -10 -4 -5 3 -10 11 -10 16 0 6 5 7 10 4 6 -3
10 -11 10 -16z m45 -19 c3 -5 1 -10 -4 -10 -6 0 -11 5 -11 10 0 6 2 10 4 10 3
0 8 -4 11 -10z m-2955 -21 c0 -5 -4 -9 -10 -9 -5 0 -10 7 -10 16 0 8 5 12 10
9 6 -3 10 -10 10 -16z m36 -78 c-13 -20 -26 -11 -26 16 0 25 1 26 16 11 9 -9
13 -21 10 -27z m38 23 c17 -7 22 -34 6 -34 -5 0 -14 9 -20 20 -12 22 -10 23
14 14z m-444 -28 c0 -3 -4 -8 -10 -11 -5 -3 -10 -1 -10 4 0 6 5 11 10 11 6 0
10 -2 10 -4z m35 -25 c-4 -13 2 -25 22 -39 l27 -20 -31 2 c-17 1 -35 4 -38 8
-10 9 5 68 16 68 6 0 8 -9 4 -19z m395 -101 c0 -5 -4 -10 -10 -10 -5 0 -10 5
-10 10 0 6 5 10 10 10 6 0 10 -4 10 -10z m2555 -50 c-3 -5 -12 -10 -18 -10 -7
0 -6 4 3 10 19 12 23 12 15 0z m-1318 -42 c-3 -8 -6 -5 -6 6 -1 11 2 17 5 13
3 -3 4 -12 1 -19z m-1167 8 c0 -3 -4 -8 -10 -11 -5 -3 -10 -1 -10 4 0 6 5 11
10 11 6 0 10 -2 10 -4z m2500 -20 c0 -11 -19 -15 -25 -6 -3 5 1 10 9 10 9 0
16 -2 16 -4z m19 -32 c39 -8 45 -44 6 -44 -14 0 -23 5 -21 13 1 6 1 9 -1 5 -3
-5 -9 -8 -15 -8 -10 0 -38 25 -38 34 0 8 30 8 69 0z m-2399 -59 c0 -30 -13
-32 -39 -6 -21 21 -23 20 32 30 4 0 7 -10 7 -24z m-6 -121 c3 -8 2 -12 -4 -9
-6 3 -10 10 -10 16 0 14 7 11 14 -7z m762 -150 c-5 -13 -10 -14 -18 -6 -6 6
-8 18 -4 28 5 13 10 14 18 6 6 -6 8 -18 4 -28z m44 6 c0 -5 -5 -10 -11 -10 -5
0 -7 5 -4 10 3 6 8 10 11 10 2 0 4 -4 4 -10z m1557 -36 c-3 -3 -12 -4 -19 -1
-8 3 -5 6 6 6 11 1 17 -2 13 -5z m3 -54 c0 -11 -4 -20 -9 -20 -11 0 -22 26
-14 34 12 12 23 5 23 -14z m-1990 -10 c0 -5 -5 -10 -11 -10 -5 0 -7 5 -4 10 3
6 8 10 11 10 2 0 4 -4 4 -10z m310 -60 c0 -5 -7 -10 -15 -10 -8 0 -15 5 -15
10 0 6 7 10 15 10 8 0 15 -4 15 -10z m115 -90 c3 -5 -1 -10 -9 -10 -9 0 -16 5
-16 10 0 6 4 10 9 10 6 0 13 -4 16 -10z m68 -35 c-3 -9 -8 -14 -10 -11 -3 3
-2 9 2 15 9 16 15 13 8 -4z m492 -95 c3 -5 1 -10 -4 -10 -6 0 -11 5 -11 10 0
6 2 10 4 10 3 0 8 -4 11 -10z m1202 -788 c11 -7 33 -54 33 -71 0 -5 -9 -11
-20 -14 -17 -4 -20 0 -20 28 0 19 -4 37 -10 40 -12 7 -13 25 -2 25 4 0 12 -4
19 -8z m-2247 -72 c0 -5 -5 -10 -11 -10 -5 0 -7 5 -4 10 3 6 8 10 11 10 2 0 4
-4 4 -10z m81 -70 c23 -13 25 -33 3 -51 -13 -11 -14 -9 -9 14 6 21 4 27 -9 27
-9 0 -16 -4 -16 -10 0 -5 -5 -10 -11 -10 -8 0 -9 4 0 13 6 8 8 17 4 20 -10 11
16 8 38 -3z m94 -39 c-9 -16 -25 -3 -18 15 4 10 9 12 15 6 6 -6 7 -15 3 -21z
m-56 -62 c-15 -9 -32 -2 -24 11 3 5 13 6 21 3 12 -4 13 -8 3 -14z m48 -41 c-2
-13 -4 -5 -4 17 -1 22 1 32 4 23 2 -10 2 -28 0 -40z m-44 -50 c-6 -11 -43 -10
-43 1 0 5 11 8 24 7 13 0 22 -4 19 -8z m57 -8 c0 -5 -4 -10 -10 -10 -5 0 -10
5 -10 10 0 6 5 10 10 10 6 0 10 -4 10 -10z m144 -31 c-3 -5 -10 -7 -15 -3 -5
3 -7 10 -3 15 3 5 10 7 15 3 5 -3 7 -10 3 -15z m-174 7 c0 -2 -7 -7 -16 -10
-8 -3 -12 -2 -9 4 6 10 25 14 25 6z m80 -32 c0 -2 -7 -4 -15 -4 -8 0 -15 4
-15 10 0 5 7 7 15 4 8 -4 15 -8 15 -10z m-599 -28 c-18 -19 -23 -37 -24 -75
-1 -33 -6 -52 -15 -56 -7 -2 -10 -9 -7 -15 3 -5 2 -10 -3 -10 -5 0 -14 12 -21
27 -11 23 -10 29 7 42 10 9 25 37 32 64 10 37 17 47 33 47 20 0 20 -1 -2 -24z
m729 -190 c0 -3 -4 -8 -10 -11 -5 -3 -10 -1 -10 4 0 6 5 11 10 11 6 0 10 -2
10 -4z m-120 -22 c0 -8 -5 -12 -10 -9 -6 4 -8 11 -5 16 9 14 15 11 15 -7z m80
-424 c0 -5 -2 -10 -4 -10 -3 0 -8 5 -11 10 -3 6 -1 10 4 10 6 0 11 -4 11 -10z
m186 -94 c-9 -19 -16 -52 -16 -74 0 -58 -41 -97 -53 -51 -10 37 4 83 33 109
15 14 31 36 35 50 5 14 10 19 13 12 2 -7 -3 -28 -12 -46z m-713 -187 c-6 -6
-7 3 -4 23 4 28 6 29 9 9 2 -13 0 -27 -5 -32z m647 -45 c-23 -26 -30 -14 -12
20 14 28 18 30 20 14 2 -10 -2 -26 -8 -34z m-700 -154 c0 -5 -4 -10 -10 -10
-5 0 -10 5 -10 10 0 6 5 10 10 10 6 0 10 -4 10 -10z m-50 -330 c0 -5 -6 -15
-14 -23 -16 -16 -23 -72 -12 -104 9 -27 -10 -103 -26 -103 -7 0 -8 -17 -4 -52
10 -81 7 -111 -14 -133 -11 -12 -20 -33 -20 -48 0 -15 -5 -27 -10 -27 -12 0
-7 27 21 115 16 48 17 60 6 66 -17 10 -10 79 9 86 16 6 20 83 5 99 -13 14 -1
70 20 93 10 11 19 27 19 36 0 9 5 13 10 10 6 -3 10 -10 10 -15z m-270 -2356
c0 -8 -4 -14 -10 -14 -5 0 -10 9 -10 21 0 11 5 17 10 14 6 -3 10 -13 10 -21z
m275 -36 c0 -13 -4 -29 -8 -36 -14 -21 -67 -43 -88 -37 -27 9 -14 25 20 25 28
0 53 20 64 53 9 23 13 21 12 -5z m-184 -58 c5 0 9 -9 9 -20 0 -11 -6 -20 -14
-20 -20 0 -29 17 -14 24 7 4 3 4 -9 2 -13 -2 -26 1 -30 6 -3 7 -1 8 5 4 7 -4
12 -2 12 4 0 7 7 9 16 6 9 -3 20 -6 25 -6z"/>
<path d="M3965 10630 c3 -5 11 -10 16 -10 6 0 7 5 4 10 -3 6 -11 10 -16 10 -6
0 -7 -4 -4 -10z"/>
<path d="M5472 10448 c6 -18 28 -21 28 -4 0 9 -7 16 -16 16 -9 0 -14 -5 -12
-12z"/>
<path d="M5266 10201 c-3 -5 1 -14 8 -20 12 -10 13 -8 9 8 -6 23 -9 25 -17 12z"/>
<path d="M4088 10173 c7 -3 16 -2 19 1 4 3 -2 6 -13 5 -11 0 -14 -3 -6 -6z"/>
<path d="M6270 8860 c0 -5 5 -10 10 -10 6 0 10 5 10 10 0 6 -4 10 -10 10 -5 0
-10 -4 -10 -10z"/>
<path d="M6255 8831 c-3 -5 -1 -12 4 -15 5 -3 11 1 15 9 6 16 -9 21 -19 6z"/>
<path d="M4085 8790 c-3 -5 -36 -8 -75 -6 -64 4 -138 -9 -156 -27 -4 -4 -18
-7 -30 -7 -28 0 -38 -14 -30 -44 5 -21 37 -40 59 -37 4 1 28 -10 52 -24 29
-17 42 -31 38 -41 -8 -21 -23 -17 -23 6 0 12 -7 20 -16 20 -11 0 -15 -6 -11
-19 4 -15 -2 -20 -24 -23 -16 -3 -29 0 -29 5 0 5 -18 6 -40 2 -26 -4 -40 -3
-40 4 0 6 6 11 13 12 22 1 -37 22 -68 24 -16 1 -42 5 -58 9 -16 5 -32 4 -40
-2 -13 -11 -17 -12 -45 -12 -32 0 -139 -91 -148 -126 -3 -13 -11 -24 -16 -24
-10 0 -38 -25 -38 -34 0 -3 9 -6 19 -6 10 0 22 -7 25 -16 4 -9 13 -14 21 -10
8 3 15 1 15 -4 0 -6 -9 -10 -20 -10 -11 0 -20 5 -20 10 0 6 -7 10 -15 10 -8 0
-15 -4 -15 -10 0 -5 5 -10 11 -10 5 0 8 -4 5 -8 -7 -11 30 -42 49 -42 18 0 20
-16 3 -18 -7 -1 -28 -5 -46 -8 -20 -4 -38 -2 -47 6 -10 9 -15 9 -15 1 0 -6 -4
-11 -10 -11 -5 0 -10 7 -10 15 0 8 7 15 16 15 8 0 12 5 9 10 -10 16 -33 12
-52 -9 -14 -15 -17 -32 -15 -65 3 -39 7 -46 26 -46 11 0 30 -7 40 -15 16 -12
17 -17 6 -30 -12 -14 -15 -13 -37 6 l-23 22 0 -31 c0 -18 4 -32 10 -32 5 0 9
-3 7 -8 -1 -4 10 -21 25 -37 15 -16 25 -32 22 -37 -3 -4 6 -8 20 -8 14 0 28
-5 32 -11 3 -6 17 -8 31 -4 20 5 24 3 20 -9 -4 -9 1 -28 9 -43 l15 -28 -6 35
c-7 33 -6 34 11 18 10 -10 18 -32 18 -50 1 -27 5 -34 26 -37 14 -1 29 -8 33
-15 6 -8 10 -8 14 2 6 15 77 16 105 1 15 -8 18 -17 14 -35 -5 -19 -3 -24 14
-24 18 0 20 -4 14 -40 -6 -38 6 -55 21 -30 3 6 15 10 26 10 16 0 18 -5 13 -26
-6 -23 -4 -25 15 -19 14 4 21 2 21 -6 0 -28 31 -48 67 -42 22 4 38 2 43 -6 4
-7 28 -13 54 -14 25 -1 46 -5 46 -9 0 -8 98 0 112 8 4 2 13 -5 22 -17 13 -19
18 -20 31 -9 8 7 18 10 22 7 3 -4 -2 -9 -11 -13 -26 -10 -20 -44 8 -44 14 0
28 5 31 11 5 7 13 4 26 -7 10 -9 16 -20 14 -25 -3 -4 -1 -10 4 -14 6 -3 15 4
21 16 9 17 18 20 41 15 15 -3 31 -1 34 4 3 6 -4 10 -17 11 l-23 0 25 12 c14 6
28 16 32 22 5 6 8 5 8 -4 0 -8 8 -4 19 10 13 16 16 28 10 35 -11 14 14 26 35
18 16 -6 28 10 30 40 1 15 9 22 29 24 15 2 27 9 27 18 0 8 7 14 15 14 9 0 21
11 27 25 6 14 16 24 22 22 6 -3 19 6 29 19 15 21 16 24 2 24 -10 0 -15 9 -15
27 0 26 1 26 14 7 18 -24 32 -13 15 13 -8 14 -20 18 -43 15 -25 -4 -29 -2 -18
9 16 17 15 29 -2 29 -20 0 -29 30 -14 47 9 11 26 13 67 9 89 -8 124 -6 142 9
8 8 19 12 24 8 4 -5 5 0 2 10 -4 10 -7 21 -7 23 0 3 -4 2 -10 -1 -15 -9 -12 2
6 30 9 14 24 25 33 25 14 1 13 3 -3 15 -19 15 -22 39 -13 120 2 17 5 40 5 52
1 14 10 23 24 25 32 5 35 28 4 28 -17 0 -26 5 -26 16 0 11 -6 14 -20 9 -17 -5
-20 -2 -20 26 0 26 3 30 12 21 17 -17 28 -15 28 7 0 11 5 23 10 26 15 9 12 25
-4 25 -8 0 -17 -8 -20 -17 -6 -14 -9 -13 -23 8 -9 13 -29 35 -45 48 -15 13
-28 30 -28 37 0 8 -3 14 -8 14 -4 0 -12 10 -17 22 -6 14 -26 27 -53 35 -23 6
-49 19 -57 27 -9 8 -22 13 -30 9 -9 -3 -21 -1 -28 5 -6 5 -31 10 -55 10 -24 1
-49 5 -55 10 -7 6 -57 13 -112 16 -55 4 -122 13 -149 21 -58 18 -63 18 -71 5z
m730 -390 c3 -5 1 -10 -4 -10 -6 0 -11 5 -11 10 0 6 2 10 4 10 3 0 8 -4 11
-10z m-1315 -40 c0 -5 -7 -7 -15 -4 -8 4 -15 8 -15 10 0 2 7 4 15 4 8 0 15 -4
15 -10z m566 -21 c4 -7 9 -8 13 -1 7 11 134 -24 139 -39 2 -5 9 -9 16 -9 16 0
13 -45 -4 -65 -6 -8 -17 -12 -24 -9 -7 3 -19 -2 -26 -11 -7 -8 -28 -15 -47
-15 -35 0 -98 -12 -166 -32 -32 -10 -40 -9 -48 3 -6 10 -9 10 -9 2 0 -7 -9
-13 -20 -13 -11 0 -20 5 -20 10 0 6 -7 10 -15 10 -8 0 -15 -4 -15 -10 0 -5
-12 -13 -27 -16 -16 -4 -34 -11 -40 -17 -9 -6 -13 -6 -13 2 0 6 5 11 11 11 5
0 8 4 5 9 -8 12 21 34 34 26 14 -9 13 8 -2 23 -9 9 -5 17 17 34 47 38 119 77
143 78 12 0 30 9 40 19 19 22 47 27 58 10z m-81 -9 c-3 -5 -12 -10 -18 -10 -7
0 -6 4 3 10 19 12 23 12 15 0z m-670 -20 c5 -8 11 -7 21 1 12 10 16 8 21 -9 3
-12 9 -22 14 -22 5 0 9 -7 9 -15 0 -8 -2 -15 -4 -15 -2 0 -11 -3 -19 -6 -9 -3
-17 3 -21 18 -6 21 -7 22 -20 6 -14 -20 -36 -6 -36 22 0 28 22 40 35 20z m75
-182 c0 -6 -7 -5 -15 2 -8 7 -15 17 -15 22 0 6 7 5 15 -2 8 -7 15 -17 15 -22z
m460 2 c0 -5 -7 -10 -15 -10 -8 0 -15 5 -15 10 0 6 7 10 15 10 8 0 15 -4 15
-10z m725 -149 c-4 -3 -12 -6 -18 -6 -7 -1 -11 -7 -9 -15 3 -11 0 -11 -13 0
-14 11 -14 14 2 25 17 12 50 9 38 -4z m-315 -305 c0 -3 -4 -8 -10 -11 -5 -3
-10 -1 -10 4 0 6 5 11 10 11 6 0 10 -2 10 -4z"/>
<path d="M6247 8753 c-4 -3 -7 -11 -7 -17 0 -6 5 -5 12 2 6 6 9 14 7 17 -3 3
-9 2 -12 -2z"/>
<path d="M5205 8629 c-4 -6 -5 -13 -2 -16 7 -7 27 6 27 18 0 12 -17 12 -25 -2z"/>
<path d="M3152 8599 c2 -7 10 -15 17 -17 8 -3 12 1 9 9 -2 7 -10 15 -17 17 -8
3 -12 -1 -9 -9z"/>
<path d="M3120 8560 c0 -5 7 -7 15 -4 8 4 15 8 15 10 0 2 -7 4 -15 4 -8 0 -15
-4 -15 -10z"/>
<path d="M3224 8466 c-5 -13 -2 -23 9 -31 10 -7 17 -17 17 -22 0 -6 9 -13 20
-16 22 -6 28 8 7 16 -8 3 -21 20 -30 38 -14 29 -17 31 -23 15z"/>
<path d="M4830 8220 c0 -5 5 -10 10 -10 6 0 10 5 10 10 0 6 -4 10 -10 10 -5 0
-10 -4 -10 -10z"/>
<path d="M4740 8033 c0 -5 4 -15 10 -23 11 -18 25 -7 17 15 -6 15 -27 21 -27
8z"/>
<path d="M3630 7900 c0 -5 5 -10 10 -10 6 0 10 5 10 10 0 6 -4 10 -10 10 -5 0
-10 -4 -10 -10z"/>
<path d="M4510 7760 c0 -5 4 -10 9 -10 6 0 13 5 16 10 3 6 -1 10 -9 10 -9 0
-16 -4 -16 -10z"/>
<path d="M5440 7710 c0 -5 4 -10 9 -10 6 0 13 5 16 10 3 6 -1 10 -9 10 -9 0
-16 -4 -16 -10z"/>
<path d="M4235 7600 c-3 -5 -1 -10 4 -10 6 0 11 5 11 10 0 6 -2 10 -4 10 -3 0
-8 -4 -11 -10z"/>
<path d="M5413 7355 c-24 -14 -50 -22 -59 -18 -9 3 -20 0 -25 -8 -7 -11 -11
-11 -17 -2 -10 16 -37 -1 -27 -18 6 -9 3 -10 -11 -5 -25 10 -184 14 -190 4 -2
-4 -25 -10 -50 -14 -25 -3 -50 -12 -57 -19 -7 -6 -18 -10 -25 -7 -16 5 -16
-15 1 -21 6 -3 0 -6 -14 -6 -37 -1 -93 -22 -102 -38 -4 -7 -20 -13 -35 -13
-34 0 -80 -46 -64 -62 9 -9 6 -16 -12 -27 -20 -14 -22 -18 -10 -29 8 -7 14 -9
14 -5 0 4 9 -11 21 -34 12 -24 27 -43 34 -43 8 0 17 -9 20 -21 13 -41 83 -57
208 -46 26 2 47 0 47 -5 0 -5 -4 -7 -9 -3 -5 3 -12 2 -15 -3 -2 -4 9 -14 25
-21 16 -7 29 -19 29 -27 0 -8 5 -14 10 -14 6 0 9 -14 8 -32 -3 -26 2 -34 27
-47 17 -9 32 -19 35 -22 15 -18 55 -15 101 7 47 23 53 24 74 10 25 -16 37 -12
28 10 -7 18 2 18 31 -2 14 -9 27 -11 30 -5 3 5 16 7 29 3 20 -5 21 -4 8 11 -7
9 -10 17 -7 17 4 0 2 9 -3 19 -9 15 -7 20 9 24 26 7 25 23 -1 30 -27 7 -17 23
19 30 16 3 30 13 31 21 1 9 2 25 3 36 1 11 10 23 20 26 10 3 18 11 17 17 -4
33 2 49 16 43 9 -3 15 0 15 9 0 9 -6 12 -15 9 -20 -8 -19 -2 9 48 31 57 40
118 20 146 -8 12 -21 22 -27 22 -7 0 -23 16 -36 35 -13 19 -37 42 -54 50 -16
8 -31 15 -31 15 -1 -1 -20 -12 -43 -25z m27 -505 c0 -5 -12 -10 -27 -10 -22 0
-25 2 -13 10 20 13 40 13 40 0z"/>
<path d="M6137 7342 c-17 -4 -18 -5 -2 -23 16 -17 20 -17 46 -3 35 18 38 28 5
20 -13 -3 -26 -2 -28 2 -2 4 -11 6 -21 4z"/>
<path d="M3197 7320 c3 -11 9 -20 14 -20 5 0 9 9 9 20 0 11 -6 20 -14 20 -9 0
-12 -7 -9 -20z"/>
<path d="M4980 7310 c0 -5 7 -10 15 -10 8 0 15 5 15 10 0 6 -7 10 -15 10 -8 0
-15 -4 -15 -10z"/>
<path d="M3196 7277 c3 -10 9 -15 12 -12 3 3 0 11 -7 18 -10 9 -11 8 -5 -6z"/>
<path d="M2405 7240 c3 -5 8 -10 11 -10 2 0 4 5 4 10 0 6 -5 10 -11 10 -5 0
-7 -4 -4 -10z"/>
<path d="M6105 7230 c-3 -5 -1 -10 4 -10 6 0 11 5 11 10 0 6 -2 10 -4 10 -3 0
-8 -4 -11 -10z"/>
<path d="M2796 7173 c-6 -14 -5 -15 5 -6 7 7 10 15 7 18 -3 3 -9 -2 -12 -12z"/>
<path d="M3220 7170 c0 -5 7 -10 15 -10 8 0 15 5 15 10 0 6 -7 10 -15 10 -8 0
-15 -4 -15 -10z"/>
<path d="M2820 7129 c0 -5 5 -7 10 -4 6 3 10 8 10 11 0 2 -4 4 -10 4 -5 0 -10
-5 -10 -11z"/>
<path d="M3532 7095 c-9 -20 -9 -25 2 -25 8 0 14 11 14 25 0 14 -1 25 -3 25
-1 0 -7 -11 -13 -25z"/>
<path d="M3285 7060 c4 -6 11 -8 16 -5 14 9 11 15 -7 15 -8 0 -12 -5 -9 -10z"/>
<path d="M2465 7020 c-3 -5 -2 -10 4 -10 5 0 13 5 16 10 3 6 2 10 -4 10 -5 0
-13 -4 -16 -10z"/>
<path d="M3271 7014 c0 -11 3 -14 6 -6 3 7 2 16 -1 19 -3 4 -6 -2 -5 -13z"/>
<path d="M2496 7002 c-10 -16 6 -51 25 -57 11 -4 32 -18 49 -31 19 -17 43 -26
72 -27 52 -3 66 -11 79 -44 10 -27 29 -22 29 8 0 11 7 22 15 25 8 4 15 12 15
19 0 14 -52 27 -75 19 -27 -11 -65 5 -65 26 0 12 -5 17 -14 14 -8 -3 -17 -1
-21 5 -3 6 -14 11 -24 11 -10 0 -30 9 -44 20 -28 22 -33 24 -41 12z"/>
<path d="M3300 7000 c0 -5 5 -10 10 -10 6 0 10 5 10 10 0 6 -4 10 -10 10 -5 0
-10 -4 -10 -10z"/>
<path d="M3261 6916 c-16 -19 -11 -29 8 -17 7 5 12 14 9 21 -3 9 -8 7 -17 -4z"/>
<path d="M3290 6891 c-9 -18 -8 -21 9 -21 26 0 34 15 17 30 -12 9 -17 7 -26
-9z"/>
<path d="M2867 6869 c4 -14 8 -15 18 -6 14 13 12 20 -9 23 -9 1 -12 -5 -9 -17z"/>
<path d="M2760 6860 c0 -5 7 -10 15 -10 8 0 15 5 15 10 0 6 -7 10 -15 10 -8 0
-15 -4 -15 -10z"/>
<path d="M3263 6715 c11 -7 25 -11 33 -8 22 8 6 23 -24 23 -25 -1 -26 -2 -9
-15z"/>
<path d="M6000 6710 c0 -5 5 -10 10 -10 6 0 10 5 10 10 0 6 -4 10 -10 10 -5 0
-10 -4 -10 -10z"/>
<path d="M3170 6696 c0 -2 7 -9 15 -16 12 -10 15 -10 15 4 0 9 -7 16 -15 16
-8 0 -15 -2 -15 -4z"/>
<path d="M3230 6650 c0 -5 5 -10 10 -10 6 0 10 5 10 10 0 6 -4 10 -10 10 -5 0
-10 -4 -10 -10z"/>
<path d="M5648 6603 c6 -2 18 -2 25 0 6 3 1 5 -13 5 -14 0 -19 -2 -12 -5z"/>
<path d="M3535 6490 c4 -6 11 -8 16 -5 14 9 11 15 -7 15 -8 0 -12 -5 -9 -10z"/>
<path d="M3380 6332 c0 -12 19 -26 26 -19 2 2 -2 10 -11 17 -9 8 -15 8 -15 2z"/>
<path d="M3356 6317 c3 -10 9 -15 12 -12 3 3 0 11 -7 18 -10 9 -11 8 -5 -6z"/>
<path d="M4401 6184 c0 -11 3 -14 6 -6 3 7 2 16 -1 19 -3 4 -6 -2 -5 -13z"/>
<path d="M3547 6173 c-12 -12 -7 -22 8 -17 8 4 15 10 15 15 0 11 -14 12 -23 2z"/>
<path d="M3625 6050 c-7 -12 2 -30 16 -30 5 0 9 9 9 20 0 21 -15 27 -25 10z"/>
<path d="M4375 6030 c-3 -5 -1 -10 4 -10 6 0 11 5 11 10 0 6 -2 10 -4 10 -3 0
-8 -4 -11 -10z"/>
<path d="M5630 6015 c0 -8 5 -15 10 -15 6 0 10 7 10 15 0 8 -4 15 -10 15 -5 0
-10 -7 -10 -15z"/>
<path d="M4053 5925 c-1 -31 1 -33 18 -22 17 11 17 12 1 32 -9 11 -17 21 -17
22 -1 1 -1 -13 -2 -32z"/>
<path d="M4003 5922 c4 -27 27 -54 27 -31 0 7 -7 23 -16 34 -14 19 -15 19 -11
-3z"/>
<path d="M3898 5893 c7 -3 16 -2 19 1 4 3 -2 6 -13 5 -11 0 -14 -3 -6 -6z"/>
<path d="M3960 5880 c0 -5 5 -10 10 -10 6 0 10 5 10 10 0 6 -4 10 -10 10 -5 0
-10 -4 -10 -10z"/>
<path d="M4280 5881 c0 -5 9 -12 19 -16 16 -5 19 -13 15 -41 -4 -30 -2 -33 10
-22 10 9 11 18 4 31 -8 16 -7 18 11 12 25 -7 41 19 22 38 -8 8 -15 6 -26 -9
-13 -17 -14 -17 -15 -1 0 17 -40 26 -40 8z"/>
<path d="M4033 5870 c-13 -5 -23 -12 -23 -16 0 -3 7 -3 16 0 9 4 22 2 29 -4
15 -13 30 3 20 20 -7 12 -13 12 -42 0z"/>
<path d="M4260 5846 c0 -17 16 -30 23 -19 3 5 -1 14 -9 21 -12 10 -14 10 -14
-2z"/>
<path d="M4386 5825 c-3 -9 0 -15 9 -15 8 0 15 7 15 15 0 8 -4 15 -9 15 -5 0
-11 -7 -15 -15z"/>
<path d="M5630 5739 c0 -5 5 -7 10 -4 6 3 10 8 10 11 0 2 -4 4 -10 4 -5 0 -10
-5 -10 -11z"/>
<path d="M5295 5696 c11 -8 23 -12 28 -9 13 8 -3 23 -26 23 -20 0 -20 0 -2
-14z"/>
<path d="M4420 5656 c0 -9 5 -16 10 -16 6 0 10 4 10 9 0 6 -4 13 -10 16 -5 3
-10 -1 -10 -9z"/>
<path d="M4895 5590 c3 -5 8 -10 11 -10 2 0 4 5 4 10 0 6 -5 10 -11 10 -5 0
-7 -4 -4 -10z"/>
<path d="M3512 10303 c5 -25 28 -28 28 -4 0 12 -6 21 -16 21 -9 0 -14 -7 -12
-17z"/>
<path d="M1775 11050 c-3 -5 1 -10 10 -10 9 0 13 5 10 10 -3 6 -8 10 -10 10
-2 0 -7 -4 -10 -10z"/>
<path d="M1768 10953 c7 -3 16 -2 19 1 4 3 -2 6 -13 5 -11 0 -14 -3 -6 -6z"/>
<path d="M1760 10910 c0 -5 5 -10 10 -10 6 0 10 5 10 10 0 6 -4 10 -10 10 -5
0 -10 -4 -10 -10z"/>
<path d="M1740 10620 c0 -5 5 -10 10 -10 6 0 10 5 10 10 0 6 -4 10 -10 10 -5
0 -10 -4 -10 -10z"/>
<path d="M1790 10511 c0 -17 12 -41 21 -41 5 0 9 11 9 25 0 16 -6 25 -15 25
-8 0 -15 -4 -15 -9z"/>
<path d="M1837 10466 c-17 -13 -16 -14 3 -19 15 -4 20 0 20 14 0 22 0 22 -23
5z"/>
<path d="M1773 10453 c-7 -3 -13 -12 -13 -21 0 -15 2 -15 17 1 18 18 16 27 -4
20z"/>
<path d="M1760 10400 l-25 -8 28 -1 c15 -1 27 4 27 9 0 6 -1 10 -2 9 -2 -1
-14 -5 -28 -9z"/>
</g>
</svg>
