<?xml version="1.0" standalone="no"?>
<!DOCTYPE svg PUBLIC "-//W3C//DTD SVG 20010904//EN"
 "http://www.w3.org/TR/2001/REC-SVG-20010904/DTD/svg10.dtd">
<svg version="1.0" xmlns="http://www.w3.org/2000/svg"
 width="200.000000pt" height="200.000000pt" viewBox="0 0 200.000000 200.000000"
 preserveAspectRatio="xMidYMid meet">

<g transform="translate(0.000000,200.000000) scale(0.100000,-0.100000)"
fill="#000000" stroke="none">
<path d="M1296 1638 c3 -264 2 -356 -6 -338 -6 13 -16 28 -22 31 -9 6 -8 12 1
23 11 13 11 16 0 16 -9 0 -10 3 -4 8 6 4 11 18 13 32 1 14 3 36 4 50 2 19 -2
26 -20 28 -22 3 -44 32 -41 55 3 28 -2 46 -26 81 -14 21 -26 48 -27 62 -2 14
-9 24 -18 24 -9 0 -21 5 -28 12 -6 6 -26 13 -44 15 -18 1 -60 8 -94 14 -57 11
-63 11 -116 -13 -97 -45 -164 -120 -183 -205 -6 -31 -9 -33 -51 -33 l-44 0 0
-60 0 -60 51 0 c36 0 58 -6 76 -20 33 -26 43 -18 43 34 0 51 42 151 68 161 9
4 54 9 100 11 46 2 92 9 103 15 47 25 91 -6 114 -79 6 -21 5 -22 -12 -14 -36
18 -101 23 -116 8 -29 -29 -41 -75 -27 -104 12 -25 13 -26 21 -7 5 13 8 15 9
5 0 -13 3 -12 13 2 8 10 18 13 26 9 7 -5 23 -7 35 -4 19 4 19 3 3 -7 -9 -6
-27 -8 -38 -5 -15 5 -19 4 -15 -4 12 -19 70 -13 89 9 22 26 33 20 41 -25 4
-19 12 -35 17 -35 6 0 7 -9 4 -22 -6 -17 -4 -20 9 -15 21 9 43 15 33 10 -4 -3
-4 -9 -1 -14 7 -12 -24 -49 -42 -49 -7 0 -19 -32 -29 -77 -20 -87 -16 -185 9
-230 15 -27 15 -26 17 42 0 39 0 87 -1 109 -1 30 4 45 26 67 15 16 38 29 51
29 22 0 23 -3 23 -82 0 -46 3 -120 6 -164 l7 -82 -29 5 -29 4 25 -13 c29 -16
29 -48 0 -114 -78 -178 -283 -227 -426 -101 -45 40 -83 103 -84 140 0 10 12
30 28 44 17 17 21 24 10 20 -10 -4 -18 -2 -18 3 0 6 -4 10 -10 10 -5 0 -9 -6
-7 -12 4 -20 -205 -120 -263 -126 -45 -4 -51 -2 -60 19 l-11 24 6 -25 c3 -14
7 -32 9 -40 2 -8 -14 -35 -35 -59 -22 -24 -39 -48 -39 -53 0 -5 -4 -7 -9 -4
-5 3 -7 15 -4 26 3 11 1 20 -4 20 -17 0 -22 -12 -13 -35 6 -15 4 -39 -5 -67
-7 -24 -16 -78 -20 -119 -4 -41 -15 -121 -26 -178 -10 -58 -19 -119 -19 -135
0 -17 -7 -43 -15 -59 l-14 -27 878 0 878 1 2 64 c2 52 -1 66 -14 71 -11 5 -13
10 -5 19 13 16 9 97 -5 107 -6 5 -5 8 3 8 7 0 10 5 6 11 -3 6 0 15 7 20 14 9
12 9 -28 9 -3 0 -5 -34 -4 -75 2 -62 0 -75 -13 -75 -13 0 -16 12 -16 55 0 30
-4 55 -8 55 -4 0 -8 9 -8 20 0 11 4 20 7 20 4 0 9 10 11 22 3 24 28 38 28 15
0 -19 27 -30 36 -15 4 6 1 14 -7 19 -34 19 -53 38 -46 45 4 4 13 2 19 -4 20
-20 38 -14 38 13 0 20 -7 26 -37 34 -31 9 -161 30 -184 31 -4 0 -16 26 -28 58
-29 81 -71 135 -138 179 -71 46 -90 63 -72 63 7 0 5 7 -7 16 -10 8 -13 13 -6
9 7 -4 12 0 12 9 0 9 -5 16 -11 16 -6 0 -9 25 -7 70 3 43 0 71 -6 74 -7 3 -5
9 4 15 9 6 10 11 3 11 -24 0 -18 35 9 56 25 19 34 20 73 12 68 -15 79 -4 76
76 -1 37 -4 78 -7 92 -2 13 0 33 5 42 8 13 10 9 11 -21 0 -21 4 -36 9 -33 4 3
6 18 3 32 -3 19 -1 25 7 20 6 -4 14 -1 17 7 3 8 20 14 40 15 19 1 32 -3 29 -8
-11 -18 70 3 84 21 7 11 24 19 36 19 34 0 85 12 85 19 0 4 -34 15 -75 26 -41
10 -75 21 -75 24 0 3 17 22 37 41 21 20 33 28 30 18 -4 -12 -1 -18 8 -18 8 0
14 -3 14 -7 -1 -5 -1 -17 0 -28 1 -17 4 -15 16 9 8 15 15 35 15 44 0 13 3 12
14 -3 12 -17 14 -6 15 88 l2 107 -47 20 c-26 11 -44 23 -41 26 2 3 22 -2 42
-10 21 -9 39 -16 41 -16 2 0 4 17 4 38 0 31 -6 42 -36 65 -19 16 -33 32 -29
35 3 4 10 0 15 -8 8 -13 10 -13 10 1 0 10 -15 19 -46 26 -37 9 -44 8 -40 -3 4
-11 -1 -13 -22 -9 -15 3 -21 2 -14 -1 6 -3 12 -13 12 -23 0 -13 -7 -16 -34
-13 -18 2 -37 -1 -40 -7 -4 -5 -14 -7 -24 -4 -14 6 -13 8 8 13 l24 6 -22 22
c-12 12 -22 26 -22 31 0 10 -58 26 -66 18 -3 -2 9 -7 26 -10 16 -4 30 -13 30
-21 0 -7 7 -17 16 -20 24 -9 10 -19 -15 -11 -11 3 -18 12 -15 19 4 10 -10 17
-45 26 -31 7 -51 17 -51 26 0 8 -7 14 -15 14 -8 0 -15 4 -15 10 0 5 7 7 15 4
10 -4 15 0 15 14 0 27 -27 36 -40 12 -16 -30 -12 -50 10 -50 11 0 20 -7 20
-15 0 -14 13 -19 65 -27 12 -3 19 -10 17 -21 -2 -11 4 -17 18 -17 11 0 20 -5
20 -11 0 -5 -4 -7 -10 -4 -5 3 -10 1 -10 -4 0 -6 -9 -11 -21 -11 -12 0 -17 -4
-14 -11 5 -7 -6 -9 -32 -5 -21 3 -30 3 -20 0 9 -3 17 -10 17 -15 0 -11 -43 -1
-47 10 -2 3 -27 5 -57 4 -66 -3 -68 2 -56 125 4 48 6 100 3 115 -5 25 -9 27
-57 27 -56 0 -71 -6 -57 -24 6 -8 18 -193 21 -318 0 -3 8 -9 18 -11 16 -4 16
-5 0 -6 -14 -1 -17 -9 -13 -43 10 -109 17 -408 9 -408 -5 0 -19 23 -32 50 -20
46 -24 78 -39 405 -13 270 -20 355 -30 355 -10 0 -11 -74 -7 -362z m642 125
c55 -40 60 -45 32 -34 -54 20 -90 43 -85 52 9 13 12 12 53 -18z m-191 -19 c-3
-3 -12 -4 -19 -1 -8 3 -5 6 6 6 11 1 17 -2 13 -5z m-37 -12 c0 -4 -10 -13 -21
-20 -17 -11 -24 -11 -33 -1 -8 9 -7 10 7 6 11 -4 20 -1 23 8 6 15 24 21 24 7z
m141 -16 c58 -27 57 -32 -2 -16 -20 6 -42 17 -49 25 -17 20 -12 19 51 -9z
m-178 -28 c10 -5 15 -13 12 -17 -2 -5 28 -15 68 -24 59 -12 65 -15 34 -16 -23
-1 -36 -5 -32 -11 4 -6 -8 -10 -27 -11 l-33 -1 28 -11 c15 -6 27 -14 27 -17 0
-8 -116 -30 -158 -30 -17 0 -34 -4 -37 -10 -8 -12 49 -13 90 -1 17 4 39 5 50
1 13 -5 -4 -10 -55 -15 -58 -6 -69 -10 -51 -17 26 -9 59 -7 79 5 19 12 35 -2
21 -19 -6 -7 -15 -11 -20 -8 -5 3 -35 0 -66 -6 -52 -11 -55 -13 -38 -26 18
-13 17 -14 -12 -14 -27 0 -32 -4 -36 -27 -2 -16 -5 6 -6 47 0 41 -4 98 -7 126
-6 49 -5 51 18 56 14 2 34 1 46 -3 20 -8 92 9 92 21 0 4 -25 12 -55 19 -30 7
-57 17 -61 22 -7 11 103 1 129 -13z m135 -9 c12 -5 22 -11 22 -15 0 -10 -64 8
-79 24 -13 13 -12 14 9 7 14 -4 35 -11 48 -16z m122 -69 c0 -5 -5 -10 -11 -10
-5 0 -7 5 -4 10 3 6 8 10 11 10 2 0 4 -4 4 -10z m-150 -30 c0 -5 -2 -10 -4
-10 -3 0 -8 5 -11 10 -3 6 -1 10 4 10 6 0 11 -4 11 -10z m61 -3 c-1 -12 -15
-9 -19 4 -3 6 1 10 8 8 6 -3 11 -8 11 -12z m-681 -147 c0 -14 -14 -12 -28 2
-19 19 -14 30 8 18 11 -6 20 -15 20 -20z m-46 4 c5 -12 2 -15 -10 -10 -8 3
-28 6 -42 6 -21 0 -24 2 -12 10 23 15 57 12 64 -6z m95 -65 c-16 -10 -23 -4
-14 10 3 6 11 8 17 5 6 -4 5 -9 -3 -15z m21 -19 c0 -5 -2 -10 -4 -10 -3 0 -8
5 -11 10 -3 6 -1 10 4 10 6 0 11 -4 11 -10z m17 -12 c-3 -8 -6 -5 -6 6 -1 11
2 17 5 13 3 -3 4 -12 1 -19z m217 -37 c4 -5 -3 -7 -14 -4 -23 6 -26 13 -6 13
8 0 17 -4 20 -9z m63 -143 c-2 -29 -3 -6 -3 52 0 58 1 81 3 53 2 -29 2 -77 0
-105z m310 141 c-14 -8 -22 -8 -30 0 -8 8 -3 11 19 11 25 -1 27 -2 11 -11z
m-267 -40 c0 -11 -4 -18 -10 -14 -5 3 -7 12 -3 20 7 21 13 19 13 -6z m60 -36
c0 -26 -1 -26 -15 -7 -19 25 -19 34 0 34 10 0 15 -10 15 -27z m27 -159 c-3 -3
-12 -4 -19 -1 -8 3 -5 6 6 6 11 1 17 -2 13 -5z m270 -660 c-3 -3 -12 -4 -19
-1 -8 3 -5 6 6 6 11 1 17 -2 13 -5z m53 -314 c0 -5 -4 -10 -9 -10 -6 0 -13 5
-16 10 -3 6 1 10 9 10 9 0 16 -4 16 -10z m-5 -70 c3 -5 1 -10 -4 -10 -6 0 -11
5 -11 10 0 6 2 10 4 10 3 0 8 -4 11 -10z"/>
<path d="M1688 1633 c6 -2 18 -2 25 0 6 3 1 5 -13 5 -14 0 -19 -2 -12 -5z"/>
<path d="M1615 1990 c-3 -4 1 -11 7 -13 8 -3 6 -6 -4 -6 -19 -1 -24 -26 -8
-36 6 -3 10 1 10 9 0 10 6 13 15 10 10 -4 15 0 15 14 0 21 -25 37 -35 22z"/>
<path d="M1660 1986 c0 -8 10 -18 23 -22 21 -7 21 -7 2 -14 -17 -6 -15 -8 13
-15 18 -4 36 -4 39 -1 4 3 -1 6 -10 6 -9 0 -17 6 -17 14 0 7 -10 17 -22 21
-21 7 -22 7 -4 12 12 3 25 -2 33 -13 11 -15 13 -15 13 -2 0 9 -7 19 -16 22
-27 11 -54 6 -54 -8z"/>
<path d="M1747 1986 c-4 -10 5 -16 31 -21 47 -8 77 -24 47 -26 l-20 0 20 -9
c11 -5 27 -9 35 -9 13 -1 13 0 0 9 -12 8 -11 10 7 10 25 0 39 -16 21 -23 -8
-3 -6 -6 5 -6 23 -1 57 -37 57 -60 0 -17 -4 -18 -32 -10 -17 5 -34 7 -36 4 -2
-2 16 -9 42 -16 38 -9 46 -15 46 -34 0 -13 7 -25 15 -29 13 -5 15 10 15 98 0
135 -1 136 -142 136 -82 0 -107 -3 -111 -14z m98 -16 c3 -5 1 -10 -4 -10 -6 0
-11 5 -11 10 0 6 2 10 4 10 3 0 8 -4 11 -10z"/>
<path d="M751 1944 c0 -11 3 -14 6 -6 3 7 2 16 -1 19 -3 4 -6 -2 -5 -13z"/>
<path d="M1750 1950 c8 -5 24 -10 34 -10 26 0 18 6 -19 14 -22 5 -26 4 -15 -4z"/>
<path d="M1634 1895 c0 -31 5 -45 14 -45 7 0 10 5 7 10 -3 6 1 10 10 10 9 0
13 5 10 10 -3 6 3 10 13 10 32 0 35 27 4 35 -15 3 -34 8 -43 11 -13 4 -16 -4
-15 -41z m61 15 c8 -13 -15 -13 -35 0 -12 8 -11 10 7 10 12 0 25 -4 28 -10z"/>
<path d="M1730 1910 c0 -6 7 -10 15 -10 8 0 15 -7 15 -15 0 -8 7 -15 15 -15
18 0 20 -20 3 -21 -16 -1 31 -17 52 -17 8 -1 4 4 -10 10 -17 7 -21 12 -11 15
10 4 5 10 -15 19 -17 7 -22 13 -12 13 9 1 18 5 20 9 2 5 14 5 28 1 l25 -7 -25
-2 c-19 -1 -13 -5 24 -16 46 -15 76 -13 76 3 0 9 -109 43 -135 43 -9 0 -13 -4
-10 -10 8 -12 3 -13 -29 0 -17 6 -26 6 -26 0z m170 -30 c13 -9 13 -10 0 -10
-8 0 -22 5 -30 10 -13 9 -13 10 0 10 8 0 22 -5 30 -10z"/>
<path d="M1727 1870 c3 -11 13 -20 22 -19 10 0 11 2 4 6 -7 2 -13 11 -13 19 0
8 -4 14 -9 14 -5 0 -7 -9 -4 -20z"/>
<path d="M1070 1866 c0 -9 30 -14 35 -6 4 6 -3 10 -14 10 -12 0 -21 -2 -21 -4z"/>
<path d="M1120 1860 c0 -5 7 -10 15 -10 8 0 15 -4 15 -10 0 -5 -7 -10 -15 -10
-9 0 -15 -9 -15 -25 0 -14 4 -25 9 -25 5 0 16 -3 25 -6 13 -5 16 2 16 45 0 48
-2 51 -25 51 -14 0 -25 -4 -25 -10z m30 -50 c0 -5 -5 -10 -11 -10 -5 0 -7 5
-4 10 3 6 8 10 11 10 2 0 4 -4 4 -10z"/>
<path d="M1698 1863 c7 -3 16 -2 19 1 4 3 -2 6 -13 5 -11 0 -14 -3 -6 -6z"/>
<path d="M1842 1846 c7 -8 16 -12 21 -9 11 7 -2 23 -19 23 -12 0 -12 -2 -2
-14z"/>
<path d="M1077 1839 c7 -7 15 -10 18 -7 3 3 -2 9 -12 12 -14 6 -15 5 -6 -5z"/>
<path d="M1573 1829 c-1 -12 -1 -20 0 -18 2 2 9 12 16 22 11 14 11 17 -1 17
-7 0 -14 -10 -15 -21z"/>
<path d="M1750 1826 c0 -2 7 -6 15 -10 8 -3 15 -1 15 4 0 6 -7 10 -15 10 -8 0
-15 -2 -15 -4z"/>
<path d="M1795 1810 c3 -5 8 -10 11 -10 2 0 4 5 4 10 0 6 -5 10 -11 10 -5 0
-7 -4 -4 -10z"/>
<path d="M1616 1801 c-3 -5 -16 -7 -29 -3 -20 5 -21 4 -7 -14 21 -26 32 -34
53 -34 23 0 50 26 44 43 -4 9 -6 9 -6 0 -1 -7 -10 -13 -21 -13 -11 0 -20 -4
-20 -10 0 -5 -8 -6 -17 -3 -15 6 -15 7 3 14 10 4 15 8 9 9 -5 1 1 6 15 10 23
7 23 8 3 9 -12 1 -24 -3 -27 -8z"/>
<path d="M1080 1789 c0 -5 5 -7 10 -4 6 3 10 8 10 11 0 2 -4 4 -10 4 -5 0 -10
-5 -10 -11z"/>
<path d="M1150 1740 c0 -19 3 -21 12 -12 9 9 9 15 0 24 -9 9 -12 7 -12 -12z"/>
<path d="M270 1385 c0 -113 2 -135 15 -135 18 0 19 12 3 28 -7 7 -8 12 -2 12
6 0 15 -5 20 -10 8 -8 11 -2 12 20 0 16 -4 30 -9 30 -5 0 -9 -7 -9 -16 0 -8
-4 -13 -9 -9 -5 3 -6 17 -2 33 4 15 6 33 4 40 -3 6 1 12 7 12 8 0 10 -9 6 -25
-4 -14 -2 -25 4 -25 18 0 11 58 -7 63 -17 4 -17 5 0 6 20 1 24 -6 32 -74 7
-57 7 -72 2 -100 -3 -12 3 -23 12 -27 13 -5 11 -7 -6 -7 -12 -1 -23 4 -25 11
-3 7 -7 5 -11 -6 -4 -9 -3 -15 1 -13 4 3 16 1 27 -4 16 -6 17 -8 3 -8 -9 -1
-20 -6 -24 -13 -4 -6 -3 -8 3 -5 5 3 17 -3 26 -14 9 -10 13 -19 9 -19 -4 0 -8
-13 -8 -30 -1 -16 2 -30 5 -30 4 0 5 -14 3 -31 -3 -23 -1 -30 7 -24 7 4 10 13
7 21 -3 8 -2 14 3 14 4 0 8 39 10 88 1 48 3 98 5 112 2 14 4 31 4 38 1 7 7 10
12 7 6 -3 10 -1 10 4 0 6 -4 11 -9 11 -10 0 -21 57 -13 65 15 14 -4 145 -20
145 -5 0 -6 -4 -3 -10 3 -5 1 -10 -6 -10 -6 0 -18 -8 -25 -17 -12 -17 -13 -16
-14 6 0 20 -2 21 -15 11 -12 -10 -15 -10 -15 4 0 9 -4 16 -10 16 -6 0 -10 -52
-10 -135z m69 32 c1 -5 -3 -5 -9 -2 -5 3 -10 16 -9 28 0 21 1 21 9 2 5 -11 9
-24 9 -28z"/>
<path d="M455 1502 c-3 -3 -5 -29 -5 -59 0 -52 1 -53 29 -53 16 0 43 -3 60 -6
l31 -6 0 61 c0 42 -4 61 -12 62 -81 5 -99 5 -103 1z"/>
<path d="M827 1480 c-31 -10 -57 -28 -57 -41 0 -5 12 -4 26 1 32 13 67 13 60
1 -4 -5 0 -11 6 -14 7 -2 -6 -10 -29 -17 -55 -17 -55 -29 -2 -23 29 4 39 2 35
-6 -4 -6 -17 -12 -29 -12 -18 -1 -19 -2 -4 -6 22 -6 79 16 72 28 -3 4 2 12 11
17 18 10 13 42 -12 67 -17 16 -35 18 -77 5z"/>
<path d="M440 1351 c-7 -14 -7 -21 0 -21 14 0 13 -27 -2 -33 -10 -3 -10 -7 -2
-18 7 -8 12 -40 12 -73 0 -32 4 -61 10 -65 6 -4 9 -21 7 -38 -4 -29 -3 -30 21
-19 13 6 24 14 24 19 0 4 8 7 17 7 13 0 14 3 5 12 -9 9 -15 9 -24 0 -18 -18
-28 -14 -27 11 0 12 3 16 6 10 7 -18 20 -16 27 3 4 10 -2 24 -15 35 -14 12
-17 19 -9 19 9 0 5 9 -9 24 -17 18 -19 24 -7 22 8 -1 19 -5 22 -9 4 -4 12 -7
18 -7 6 0 4 5 -4 10 -12 8 -11 10 8 10 13 0 22 6 22 16 0 8 3 13 8 11 4 -3 16
-1 27 4 17 7 17 8 -7 8 -16 1 -28 5 -28 10 0 5 -8 12 -17 15 -12 3 -9 5 7 4
45 -1 56 4 30 12 l-25 8 28 1 c15 1 27 -3 27 -9 0 -5 14 -10 30 -10 17 0 30 4
30 9 0 5 -10 7 -22 5 -21 -4 -21 -4 -3 4 11 5 32 7 47 6 16 -2 28 0 28 4 0 4
-30 8 -67 10 -38 1 -94 4 -125 8 -50 5 -58 4 -68 -15z m55 -51 c3 -5 1 -10 -4
-10 -6 0 -11 5 -11 10 0 6 2 10 4 10 3 0 8 -4 11 -10z m30 -19 c3 -5 1 -12 -5
-16 -5 -3 -10 1 -10 9 0 18 6 21 15 7z"/>
<path d="M0 1336 c0 -13 6 -27 13 -29 10 -4 10 -6 0 -6 -29 -2 -10 -16 22 -17
39 -1 83 -39 79 -68 -2 -12 2 -16 12 -12 8 3 14 1 14 -3 0 -5 -6 -12 -12 -14
-7 -3 8 -6 35 -6 l48 -1 -15 29 c-23 43 -87 106 -134 130 -53 27 -62 26 -62
-3z"/>
<path d="M710 1336 c0 -9 5 -16 10 -16 6 0 10 4 10 9 0 6 -4 13 -10 16 -5 3
-10 -1 -10 -9z"/>
<path d="M578 1303 c6 -2 18 -2 25 0 6 3 1 5 -13 5 -14 0 -19 -2 -12 -5z"/>
<path d="M987 1289 c-10 -6 -29 -8 -43 -5 -35 9 -31 -21 6 -42 16 -9 30 -20
30 -24 0 -5 -29 -8 -65 -8 -69 0 -82 -9 -38 -29 22 -10 28 -10 35 3 7 12 24
15 73 13 36 -1 65 -5 65 -9 0 -5 -10 -8 -22 -9 -23 0 -23 0 1 -10 20 -8 29 -5
52 17 33 31 30 45 -9 40 -15 -2 -21 -1 -14 1 10 3 8 10 -7 22 -11 10 -17 21
-14 25 4 4 1 11 -7 16 -19 12 -21 12 -43 -1z"/>
<path d="M608 1283 c7 -3 16 -2 19 1 4 3 -2 6 -13 5 -11 0 -14 -3 -6 -6z"/>
<path d="M50 1254 c15 -17 30 -18 30 -1 0 7 -9 13 -21 14 -17 2 -18 -1 -9 -13z"/>
<path d="M578 1263 c7 -3 16 -2 19 1 4 3 -2 6 -13 5 -11 0 -14 -3 -6 -6z"/>
<path d="M630 1260 c0 -12 33 -30 54 -30 9 0 16 5 16 10 0 6 -9 10 -20 10 -11
0 -20 5 -20 10 0 6 -7 10 -15 10 -8 0 -15 -4 -15 -10z"/>
<path d="M311 1244 c0 -11 3 -14 6 -6 3 7 2 16 -1 19 -3 4 -6 -2 -5 -13z"/>
<path d="M840 1249 c0 -5 5 -7 10 -4 6 3 10 8 10 11 0 2 -4 4 -10 4 -5 0 -10
-5 -10 -11z"/>
<path d="M542 1236 c-3 -5 0 -6 6 -2 6 3 18 -1 26 -10 9 -8 16 -11 16 -5 0 6
12 11 26 11 14 0 23 -4 19 -9 -3 -5 5 -12 17 -14 l23 -4 -23 -2 c-13 0 -21 -5
-18 -10 7 -10 46 -3 46 9 0 28 -123 60 -138 36z"/>
<path d="M1710 1240 c0 -5 5 -10 10 -10 6 0 10 5 10 10 0 6 -4 10 -10 10 -5 0
-10 -4 -10 -10z"/>
<path d="M1912 1230 c0 -14 2 -19 5 -12 2 6 2 18 0 25 -3 6 -5 1 -5 -13z"/>
<path d="M270 1224 c0 -8 5 -12 10 -9 6 3 10 10 10 16 0 5 -4 9 -10 9 -5 0
-10 -7 -10 -16z"/>
<path d="M15 1200 c3 -5 11 -10 16 -10 6 0 7 5 4 10 -3 6 -11 10 -16 10 -6 0
-7 -4 -4 -10z"/>
<path d="M270 1190 c0 -5 5 -10 10 -10 6 0 10 5 10 10 0 6 -4 10 -10 10 -5 0
-10 -4 -10 -10z"/>
<path d="M1690 1165 c0 -56 12 -104 28 -110 17 -6 36 16 21 26 -5 3 -7 12 -4
20 3 8 -1 32 -9 54 -8 22 -15 33 -15 25 -1 -13 -2 -13 -11 0 -7 12 -10 8 -10
-15z"/>
<path d="M678 1173 c6 -2 18 -2 25 0 6 3 1 5 -13 5 -14 0 -19 -2 -12 -5z"/>
<path d="M715 1163 c-18 -14 -18 -15 -2 -9 10 3 23 6 28 6 5 0 9 5 9 10 0 14
-12 12 -35 -7z"/>
<path d="M760 1156 c0 -22 3 -27 11 -19 8 8 8 16 0 30 -9 16 -10 14 -11 -11z"/>
<path d="M220 1143 c0 -19 3 -24 9 -15 4 7 12 12 17 11 5 -1 19 -1 31 0 38 2
16 31 -23 31 -30 0 -34 -3 -34 -27z"/>
<path d="M538 1163 c6 -2 18 -2 25 0 6 3 1 5 -13 5 -14 0 -19 -2 -12 -5z"/>
<path d="M3 1110 c0 -30 2 -43 4 -27 2 15 2 39 0 55 -2 15 -4 2 -4 -28z"/>
<path d="M31 1061 c1 -69 5 -101 13 -101 8 0 8 -2 0 -8 -6 -4 -13 -42 -16 -85
l-5 -78 76 6 c42 4 77 8 78 9 1 1 7 121 17 326 1 25 -1 25 -82 28 l-82 3 1
-100z m69 19 c0 -5 -5 -10 -11 -10 -5 0 -7 5 -4 10 3 6 8 10 11 10 2 0 4 -4 4
-10z m10 -30 c0 -5 -8 -10 -17 -10 -15 0 -16 2 -3 10 19 12 20 12 20 0z m20
-100 c0 -6 -16 -10 -35 -8 -19 1 -35 6 -35 10 0 4 16 8 35 8 19 0 35 -5 35
-10z m26 -128 c-8 -8 -19 -11 -25 -7 -16 9 -6 21 18 21 18 0 19 -2 7 -14z"/>
<path d="M635 1150 c-3 -6 1 -7 9 -4 18 7 21 14 7 14 -6 0 -13 -4 -16 -10z"/>
<path d="M538 1143 c7 -3 16 -2 19 1 4 3 -2 6 -13 5 -11 0 -14 -3 -6 -6z"/>
<path d="M735 1130 c3 -5 8 -10 11 -10 2 0 4 5 4 10 0 6 -5 10 -11 10 -5 0 -7
-4 -4 -10z"/>
<path d="M1919 1113 c-1 -16 -1 -34 0 -41 1 -8 -10 -26 -25 -40 -22 -23 -24
-28 -10 -30 14 -3 15 -6 4 -20 -11 -15 -9 -14 15 1 15 10 27 13 27 7 0 -5 12
-10 28 -11 24 0 25 -1 7 -9 -18 -8 -18 -9 5 -10 18 -2 13 -5 -20 -14 -52 -14
-40 -31 15 -20 34 6 35 8 35 50 0 28 -5 45 -12 46 -7 0 -20 2 -28 2 -8 1 -14
8 -12 16 2 7 -3 17 -10 21 -7 4 -11 23 -10 43 2 20 0 36 -3 36 -3 0 -6 -12 -6
-27z"/>
<path d="M757 1113 c-2 -5 -1 -19 4 -33 4 -14 7 -19 8 -12 1 6 8 12 16 12 8 0
15 4 15 10 0 5 -8 6 -17 3 -12 -5 -15 -2 -10 10 6 16 -8 25 -16 10z"/>
<path d="M730 1087 c0 -15 4 -27 8 -27 10 0 9 36 -1 46 -4 4 -7 -5 -7 -19z"/>
<path d="M700 1079 c0 -5 5 -7 10 -4 6 3 10 8 10 11 0 2 -4 4 -10 4 -5 0 -10
-5 -10 -11z"/>
<path d="M790 1060 c0 -5 7 -10 16 -10 8 0 12 5 9 10 -3 6 -10 10 -16 10 -5 0
-9 -4 -9 -10z"/>
<path d="M450 1051 c0 -5 7 -11 15 -15 8 -3 15 -1 15 3 0 5 -7 11 -15 15 -8 3
-15 1 -15 -3z"/>
<path d="M270 1030 c-13 -8 -13 -10 2 -10 9 0 20 5 23 10 8 13 -5 13 -25 0z"/>
<path d="M425 990 c-10 -11 -15 -21 -12 -21 4 -1 10 -2 15 -3 4 -1 13 -5 20
-9 14 -9 17 20 4 41 -7 9 -13 8 -27 -8z"/>
<path d="M355 990 c3 -5 8 -10 11 -10 2 0 4 5 4 10 0 6 -5 10 -11 10 -5 0 -7
-4 -4 -10z"/>
<path d="M970 990 c-12 -8 -9 -10 13 -10 15 0 27 5 27 10 0 13 -20 13 -40 0z"/>
<path d="M350 955 c0 -8 5 -15 10 -15 6 0 10 7 10 15 0 8 -4 15 -10 15 -5 0
-10 -7 -10 -15z"/>
<path d="M356 915 c4 -8 8 -15 10 -15 2 0 4 7 4 15 0 8 -4 15 -10 15 -5 0 -7
-7 -4 -15z"/>
<path d="M1935 899 c-59 -16 -59 -16 -28 -23 18 -4 38 -4 44 0 8 4 9 3 5 -4
-4 -7 -11 -12 -16 -12 -4 0 -27 -11 -51 -25 -34 -19 -38 -23 -19 -21 14 1 40
10 58 20 19 10 36 15 39 12 3 -2 -9 -12 -26 -21 -17 -8 -31 -18 -31 -21 0 -3
6 -2 13 1 6 4 -6 -8 -27 -27 -33 -29 -37 -36 -22 -41 16 -6 16 -8 -1 -34 -16
-24 -16 -26 -2 -21 14 5 15 2 9 -25 -4 -18 -11 -41 -16 -52 -8 -19 -7 -19 10
-2 25 25 26 22 8 -24 -11 -28 -12 -43 -5 -47 6 -4 13 -21 15 -37 l4 -30 14 30
13 30 7 -30 c7 -32 15 -23 23 25 4 20 5 19 6 -7 1 -37 6 -40 27 -19 11 11 14
48 13 168 l0 153 -19 -42 c-11 -24 -21 -43 -24 -43 -5 0 16 57 35 96 6 11 9
36 7 55 l-3 34 -60 -16z"/>
<path d="M350 858 c0 -19 2 -20 10 -8 13 19 13 30 0 30 -5 0 -10 -10 -10 -22z"/>
<path d="M1885 860 c-3 -6 1 -7 9 -4 18 7 21 14 7 14 -6 0 -13 -4 -16 -10z"/>
<path d="M390 820 c0 -5 5 -10 10 -10 6 0 10 5 10 10 0 6 -4 10 -10 10 -5 0
-10 -4 -10 -10z"/>
<path d="M421 802 c-1 -42 23 -39 27 4 2 20 0 25 -6 15 -8 -11 -10 -11 -15 0
-3 8 -6 -1 -6 -19z"/>
<path d="M346 795 c-3 -9 0 -15 9 -15 8 0 15 7 15 15 0 8 -4 15 -9 15 -5 0
-11 -7 -15 -15z"/>
<path d="M75 780 c-47 -6 -45 -7 28 -8 46 -1 77 2 77 8 0 11 -26 11 -105 0z"/>
<path d="M345 740 c-3 -5 -2 -10 4 -10 5 0 13 5 16 10 3 6 2 10 -4 10 -5 0
-13 -4 -16 -10z"/>
<path d="M349 718 c-8 -24 -7 -58 1 -58 5 0 10 14 10 30 0 17 -2 30 -5 30 -3
0 -5 -1 -6 -2z"/>
<path d="M375 710 c-3 -5 -1 -10 4 -10 6 0 11 5 11 10 0 6 -2 10 -4 10 -3 0
-8 -4 -11 -10z"/>
<path d="M340 640 c0 -5 5 -10 10 -10 6 0 10 5 10 10 0 6 -4 10 -10 10 -5 0
-10 -4 -10 -10z"/>
<path d="M0 242 c0 -16 7 -18 50 -16 27 2 50 0 50 -4 0 -15 -62 -32 -80 -22
-15 8 -18 3 -19 -44 -1 -43 3 -55 17 -61 16 -6 15 -8 -3 -22 -14 -11 -16 -17
-7 -20 6 -3 12 -9 12 -14 0 -6 -4 -7 -10 -4 -5 3 -10 -3 -10 -14 0 -19 6 -21
75 -21 l75 0 0 48 c0 26 3 84 7 130 l6 82 -82 0 c-72 0 -81 -2 -81 -18z m130
-139 c0 -9 -3 -13 -6 -10 -4 4 -20 -3 -35 -14 -16 -11 -34 -17 -40 -13 -7 4 3
16 27 30 46 28 54 29 54 7z m-10 -63 c0 -5 -18 -10 -40 -10 -22 0 -40 4 -40 8
0 4 18 9 40 10 23 2 40 -2 40 -8z"/>
<path d="M188 248 c9 -9 15 -9 24 0 9 9 7 12 -12 12 -19 0 -21 -3 -12 -12z"/>
</g>
</svg>
